<svg width="24" height="16" viewBox="0 0 24 16" fill="none" xmlns="http://www.w3.org/2000/svg">
<g clip-path="url(#clip0_70_1122)">
<path d="M0 0H24V16H0V0Z" fill="white"/>
<path d="M0 5.33337H24V16H0V5.33337Z" fill="#0B4EA2"/>
<path d="M0 10.6666H24V16H0V10.6666Z" fill="#EE1C25"/>
<path d="M10.3956 3.88C10.3956 3.88 10.52 5.12667 10.52 7.62C10.5022 10.1667 8.59778 11.4556 7.2 12.1333C5.80223 11.4556 3.89778 10.1667 3.88 7.62C3.88 5.12667 4.00445 3.88 4.00445 3.88H10.3956Z" fill="#EE1C25"/>
<path d="M6.91782 10.6667V7.54894C5.86226 7.54894 5.56226 7.64227 5.2467 7.73783C5.27639 7.41926 5.27639 7.09862 5.2467 6.78005C5.56226 6.87561 5.86226 6.96894 6.91782 6.96894V6.10227C6.58448 6.10227 6.12448 6.11561 5.59559 6.29561C5.62541 5.9763 5.62541 5.65491 5.59559 5.33561C6.12448 5.51338 6.58448 5.52672 6.91782 5.52672C6.91782 5.27561 6.84004 4.73561 6.74226 4.28894C7.04684 4.31606 7.35323 4.31606 7.65782 4.28894C7.56004 4.73561 7.48226 5.27561 7.48226 5.52672C7.81559 5.52672 8.27559 5.51338 8.80448 5.33561C8.77466 5.65491 8.77466 5.9763 8.80448 6.29561C8.27559 6.11561 7.81559 6.10227 7.48226 6.10227V6.96894C8.53782 6.96894 8.83782 6.87561 9.15337 6.78005C9.12369 7.09862 9.12369 7.41926 9.15337 7.73783C8.83782 7.64227 8.53782 7.54894 7.48226 7.54894V10.6667H6.91782Z" fill="white"/>
<mask id="mask0_70_1122" style="mask-type:luminance" maskUnits="userSpaceOnUse" x="3" y="3" width="8" height="10">
<path d="M10.3956 3.88C10.3956 3.88 10.52 5.12667 10.52 7.62C10.5022 10.1667 8.59778 11.4556 7.2 12.1333C5.80223 11.4556 3.89778 10.1667 3.88 7.62C3.88 5.12667 4.00445 3.88 4.00445 3.88H10.3956Z" fill="white"/>
</mask>
<g mask="url(#mask0_70_1122)">
<path d="M5.47339 13.1178C5.29313 13.1177 5.1155 13.0437 4.95543 12.9019C4.79536 12.7602 4.65752 12.5548 4.55349 12.303C4.44945 12.0513 4.38226 11.7605 4.35755 11.4552C4.33285 11.1498 4.35135 10.8388 4.41151 10.5482C4.47166 10.2576 4.57171 9.99593 4.70326 9.78516C4.83481 9.57439 4.99401 9.42068 5.1675 9.33693C5.34098 9.25318 5.52369 9.24183 5.70026 9.30385C5.87684 9.36587 6.04214 9.49944 6.18228 9.69335C6.30377 9.4083 6.45845 9.17798 6.63471 9.01964C6.81096 8.8613 7.00424 8.77905 7.20006 8.77905C7.39588 8.77905 7.58915 8.8613 7.76541 9.01964C7.94167 9.17798 8.09634 9.4083 8.21784 9.69335C8.35797 9.49944 8.52327 9.36587 8.69985 9.30385C8.87643 9.24183 9.05914 9.25318 9.23262 9.33693C9.40611 9.42068 9.56531 9.57439 9.69685 9.78516C9.8284 9.99593 9.92845 10.2576 9.98861 10.5482C10.0488 10.8388 10.0673 11.1498 10.0426 11.4552C10.0179 11.7605 9.95067 12.0513 9.84663 12.303C9.7426 12.5548 9.60476 12.7602 9.44469 12.9019C9.28462 13.0437 9.10699 13.1177 8.92673 13.1178H5.47339Z" fill="#0B4EA2"/>
</g>
<path fill-rule="evenodd" clip-rule="evenodd" d="M3.89584 3.76001H10.5042L10.515 3.86809L10.3956 3.88001C10.515 3.86809 10.515 3.86811 10.515 3.86813L10.5151 3.86919L10.5154 3.87211C10.5156 3.87467 10.516 3.87845 10.5164 3.88344C10.5174 3.89342 10.5187 3.90828 10.5205 3.92801C10.5239 3.96746 10.5288 4.02639 10.5347 4.1048C10.5464 4.26162 10.562 4.49637 10.5776 4.80903C10.6088 5.43435 10.64 6.37135 10.64 7.62001V7.62043L10.64 7.62085C10.6217 10.2407 8.65865 11.5594 7.25237 12.2413L7.20001 12.2667L7.14765 12.2413C5.74137 11.5594 3.7783 10.2407 3.76001 7.62085L3.76001 7.62043V7.62001C3.76001 6.37135 3.79117 5.43435 3.82238 4.80903C3.83799 4.49637 3.8536 4.26162 3.86534 4.1048C3.87122 4.02639 3.87612 3.96746 3.87956 3.92801C3.88129 3.90828 3.88264 3.89342 3.88358 3.88344C3.88405 3.87845 3.88441 3.87467 3.88465 3.87211L3.88494 3.86919L3.88504 3.86813C3.88505 3.86811 3.88505 3.86809 4.00445 3.88001L3.88505 3.86809L3.89584 3.76001ZM4.11431 4.00001C4.11156 4.03325 4.10831 4.07415 4.10467 4.12272C4.09308 4.27756 4.07759 4.51032 4.06208 4.82099C4.03107 5.44227 4.00002 6.37513 4.00001 7.61959C4.01726 10.0619 5.81727 11.3201 7.20001 11.9998C8.58274 11.3201 10.3827 10.0619 10.4 7.61964C10.4 6.37515 10.3689 5.44227 10.3379 4.82099C10.3224 4.51032 10.3069 4.27756 10.2953 4.12272C10.2917 4.07415 10.2885 4.03325 10.2857 4.00001H4.11431Z" fill="white"/>
</g>
<defs>
<clipPath id="clip0_70_1122">
<rect width="24" height="16" fill="white"/>
</clipPath>
</defs>
</svg>
