<svg width="64" height="64" viewBox="0 0 64 64" fill="none" xmlns="http://www.w3.org/2000/svg">
<g clip-path="url(#clip0_53_655)">
<mask id="mask0_53_655" style="mask-type:luminance" maskUnits="userSpaceOnUse" x="0" y="0" width="64" height="64">
<path d="M64 0H0V64H64V0Z" fill="white"/>
</mask>
<g mask="url(#mask0_53_655)">
<path d="M31.3072 24.2089H6.58415C6.35059 24.2086 6.11926 24.2544 5.90343 24.3437C5.68759 24.4329 5.49148 24.5639 5.32633 24.7291C5.16117 24.8942 5.03022 25.0903 4.94096 25.3062C4.85171 25.522 4.80589 25.7533 4.80615 25.9869V45.7259" stroke="white" stroke-width="2" stroke-linejoin="round"/>
<path d="M24.4361 45.726H3.42712C3.06979 45.7257 2.72696 45.8673 2.474 46.1197C2.22104 46.3721 2.07866 46.7146 2.07812 47.0719L2.52612 49.4539C2.75012 50.1989 3.12611 50.802 3.87411 50.802H24.4361" stroke="white" stroke-width="2" stroke-linejoin="round"/>
<path d="M24.1561 31.5229C24.1563 30.7139 23.9166 29.9231 23.4673 29.2503C23.018 28.5776 22.3793 28.0532 21.6319 27.7435C20.8846 27.4338 20.0622 27.3527 19.2688 27.5104C18.4753 27.6681 17.7465 28.0575 17.1744 28.6295C16.6023 29.2014 16.2126 29.9302 16.0547 30.7236C15.8968 31.517 15.9778 32.3394 16.2873 33.0868C16.5968 33.8342 17.1211 34.4731 17.7937 34.9225C18.4663 35.372 19.2571 35.6119 20.0661 35.6119C21.1506 35.6119 22.1908 35.1811 22.9578 34.4143C23.7248 33.6475 24.1558 32.6074 24.1561 31.5229Z" stroke="white" stroke-width="2" stroke-linejoin="round"/>
<path d="M25.6651 40.7829C24.9504 40.0282 24.0779 39.4406 23.1098 39.0621C22.1418 38.6835 21.1022 38.5233 20.0651 38.5929C16.4901 38.5929 13.5891 40.3269 13.5891 43.3549" stroke="white" stroke-width="2" stroke-linejoin="round"/>
<path d="M61.922 54.143V46.97C61.922 39.021 54.316 34.47 44.929 34.47C35.542 34.47 27.937 39.02 27.937 46.97V54.144" stroke="white" stroke-width="2" stroke-linejoin="round"/>
<path d="M55.248 20.1709C55.247 18.1305 54.6411 16.1362 53.5067 14.4402C52.3724 12.7442 50.7606 11.4226 48.8752 10.6426C46.9898 9.86255 44.9155 9.65907 42.9145 10.0579C40.9134 10.4567 39.0756 11.4399 37.6333 12.8832C36.191 14.3264 35.2091 16.1649 34.8117 18.1662C34.4142 20.1675 34.6191 22.2417 35.4004 24.1266C36.1817 26.0114 37.5044 27.6223 39.2012 28.7555C40.898 29.8887 42.8926 30.4933 44.933 30.4929C46.2881 30.4925 47.6298 30.2252 48.8815 29.7062C50.1333 29.1873 51.2706 28.4268 52.2284 27.4683C53.1863 26.5098 53.9459 25.3721 54.464 24.12C54.9821 22.8679 55.2485 21.526 55.248 20.1709Z" stroke="white" stroke-width="2" stroke-linejoin="round"/>
<path d="M5.90503 48.2629H6.20603" stroke="white" stroke-width="2" stroke-linecap="round" stroke-linejoin="round"/>
</g>
</g>
<defs>
<clipPath id="clip0_53_655">
<rect width="64" height="64" fill="white"/>
</clipPath>
</defs>
</svg>
