<svg width="64" height="64" viewBox="0 0 64 64" fill="none" xmlns="http://www.w3.org/2000/svg">
<g clip-path="url(#clip0_53_716)">
<mask id="mask0_53_716" style="mask-type:luminance" maskUnits="userSpaceOnUse" x="0" y="0" width="64" height="64">
<path d="M64 0H0V64H64V0Z" fill="white"/>
</mask>
<g mask="url(#mask0_53_716)">
<path d="M14.8491 41.988C16.1641 44.713 18.2681 49.063 19.5051 51.582C19.8359 52.4205 20.4088 53.1416 21.1509 53.6532C21.8931 54.1649 22.7707 54.444 23.6721 54.455H36.3721C38.8331 54.455 40.2721 53.255 40.2721 51.029C40.3443 50.3121 40.1608 49.5928 39.754 48.9981C39.3472 48.4034 38.7434 47.9716 38.0491 47.779L26.9731 46.621L22.5151 36.134C20.6881 31.634 17.4791 29.692 13.9921 29.692C9.20709 29.692 5.5921 32.492 4.5831 38.878L2.56909 53.256H17.1421" stroke="white" stroke-width="2" stroke-linecap="round" stroke-linejoin="round"/>
<path d="M9.65918 18.196C9.65918 19.9071 10.1665 21.5796 11.1171 23.0023C12.0677 24.4249 13.4188 25.5337 14.9995 26.1885C16.5803 26.8433 18.3197 27.0146 19.9979 26.6808C21.676 26.347 23.2175 25.5231 24.4273 24.3132C25.6372 23.1033 26.4611 21.5619 26.7949 19.8838C27.1287 18.2056 26.9574 16.4662 26.3026 14.8854C25.6479 13.3047 24.539 11.9536 23.1164 11.003C21.6937 10.0524 20.0211 9.54504 18.3101 9.54504C17.1741 9.54504 16.0491 9.7688 14.9995 10.2036C13.9499 10.6383 12.9963 11.2755 12.1929 12.0789C11.3896 12.8822 10.7524 13.8358 10.3176 14.8854C9.88293 15.935 9.65918 17.06 9.65918 18.196Z" stroke="white" stroke-width="2" stroke-linejoin="round"/>
<path d="M61.4331 44.359L34.3181 38.0121V15.6021L61.4321 21.071L61.4331 44.359Z" stroke="white" stroke-width="2" stroke-linejoin="round"/>
<path d="M31.6502 47.0851L29.05 46.4581L37.099 42.7521L58.2421 47.8361L50.1931 51.5421L39.7771 49.0421" stroke="white" stroke-width="2" stroke-linejoin="round"/>
<path d="M43.7651 40.2151V44.3601" stroke="white" stroke-width="2" stroke-linejoin="round"/>
<path d="M48.9719 41.473V45.618" stroke="white" stroke-width="2" stroke-linejoin="round"/>
<path d="M37.0542 19.1591L37.3272 19.2151" stroke="white" stroke-width="2" stroke-linecap="round" stroke-linejoin="round"/>
</g>
</g>
<defs>
<clipPath id="clip0_53_716">
<rect width="64" height="64" fill="white"/>
</clipPath>
</defs>
</svg>
