<svg width="20" height="20" viewBox="0 0 20 20" xmlns="http://www.w3.org/2000/svg">
<g clip-path="url(#clip0_555_972)">
<path fill-rule="evenodd" clip-rule="evenodd" d="M7.08419 10C7.08419 11.944 8.05619 13 10.0012 13C11.9462 13 12.9182 11.944 12.9182 10C12.9182 8.05602 11.9452 7.00002 10.0012 7.00002C8.05719 7.00002 7.08419 8.05602 7.08419 10ZM7.12119 7.12002C7.49363 6.73344 7.94132 6.42726 8.43665 6.22036C8.93197 6.01346 9.46443 5.91022 10.0012 5.91702C10.5436 5.90725 11.0822 6.00868 11.5839 6.21506C12.0856 6.42145 12.5397 6.72841 12.9182 7.11702C13.4105 7.6495 13.7616 8.2969 13.9392 9.00002H17.0012V4.75002C17.0054 4.51946 16.9623 4.29048 16.8746 4.07722C16.7869 3.86395 16.6564 3.67091 16.4912 3.51002C16.3365 3.34777 16.1502 3.21883 15.9438 3.13114C15.7375 3.04344 15.5154 2.99882 15.2912 3.00002H4.78719C4.31312 3.00488 3.858 3.18678 3.51119 3.51002C3.34223 3.66805 3.20924 3.86057 3.12125 4.07452C3.03325 4.28847 2.9923 4.51885 3.00119 4.75002V9.00002H6.10119C6.27899 8.29806 6.62964 7.65176 7.12119 7.12002V7.12002ZM16.0012 5.91702C16.0005 5.97876 15.9872 6.0397 15.9621 6.0961C15.937 6.15251 15.9006 6.20319 15.8552 6.24502C15.8105 6.2841 15.7585 6.31387 15.7022 6.33259C15.6459 6.35131 15.5864 6.35859 15.5272 6.35402H14.1422C14.083 6.35859 14.0235 6.35131 13.9672 6.33259C13.9109 6.31387 13.8589 6.2841 13.8142 6.24502C13.7688 6.20319 13.7324 6.15251 13.7073 6.0961C13.6822 6.0397 13.6689 5.97876 13.6682 5.91702V4.49502C13.6745 4.37134 13.7264 4.25439 13.814 4.16683C13.9016 4.07926 14.0185 4.0273 14.1422 4.02102H15.5272C15.6509 4.0273 15.7678 4.07926 15.8554 4.16683C15.943 4.25439 15.9949 4.37134 16.0012 4.49502V5.91702ZM12.9182 12.88C12.5399 13.2692 12.086 13.5767 11.5843 13.7836C11.0826 13.9905 10.5438 14.0924 10.0012 14.083C9.46665 14.0832 8.93738 13.9774 8.44395 13.7718C7.95053 13.5662 7.50273 13.2649 7.12643 12.8853C6.75013 12.5056 6.45279 12.0552 6.25158 11.56C6.05038 11.0647 5.9493 10.5345 5.95419 10H3.00119V15.25C3.00305 15.4831 3.05253 15.7133 3.1466 15.9265C3.24066 16.1398 3.37732 16.3315 3.54819 16.49C3.70908 16.6552 3.90211 16.7857 4.11538 16.8734C4.32865 16.9611 4.55763 17.0042 4.78819 17H15.2882C15.5131 17.0059 15.7366 16.9635 15.9436 16.8755C16.1507 16.7875 16.3364 16.656 16.4882 16.49C16.8078 16.1551 16.9907 15.7129 17.0012 15.25V10H14.0842C14.0968 10.5342 13.9998 11.0654 13.7993 11.5607C13.5988 12.056 13.2989 12.505 12.9182 12.88V12.88Z"/>
</g>
<defs>
<clipPath id="clip0_555_972">
<rect width="20" height="20" fill="white"/>
</clipPath>
</defs>
</svg>
