<svg width="130" height="13" viewBox="0 0 130 13" fill="none" xmlns="http://www.w3.org/2000/svg">
<g clip-path="url(#clip0_3_887)">
<path d="M81.2901 12.0838C81.3793 12.0931 81.4695 12.0796 81.5521 12.0445C81.6346 12.0094 81.707 11.9539 81.7622 11.8832C81.8175 11.8125 81.8538 11.7289 81.8679 11.6403C81.882 11.5517 81.8733 11.461 81.8427 11.3766L77.0007 0.888838C76.914 0.637815 76.7514 0.419983 76.5354 0.265566C76.3193 0.111149 76.0606 0.0278099 75.795 0.0270996H74.5893C74.3238 0.0278099 74.065 0.111149 73.849 0.265566C73.6329 0.419983 73.4703 0.637815 73.3837 0.888838L68.5455 11.3766C68.5151 11.4607 68.5065 11.551 68.5204 11.6393C68.5343 11.7275 68.5703 11.8108 68.6251 11.8814C68.6798 11.952 68.7516 12.0076 68.8336 12.043C68.9157 12.0784 69.0053 12.0924 69.0943 12.0838H70.9569C71.1813 12.0606 71.3945 11.9738 71.5711 11.8334C71.7478 11.693 71.8806 11.505 71.9539 11.2916L75.2076 4.03828L78.4653 11.2916C78.5379 11.5047 78.67 11.6926 78.846 11.833C79.022 11.9734 79.2345 12.0604 79.4584 12.0838H81.3017H81.2901Z" fill="#405C6A"/>
<path d="M7.19542 0.0656738H0.776773C0.571796 0.0656738 0.375214 0.1471 0.230273 0.292041C0.0853324 0.436981 0.00390625 0.633563 0.00390625 0.83854V11.3109C0.00672483 11.5168 0.0884688 11.7138 0.232278 11.8612C0.376087 12.0086 0.57099 12.0952 0.776773 12.1031H2.36501C2.46815 12.1031 2.57025 12.0825 2.6653 12.0424C2.76036 12.0024 2.84643 11.9437 2.91845 11.8699C2.99048 11.7961 3.047 11.7086 3.08469 11.6126C3.12237 11.5166 3.14045 11.414 3.13787 11.3109V9.41735H7.19542C10.399 9.41735 12.277 7.97209 12.277 4.73378C12.277 1.49547 10.4067 0.0656738 7.19542 0.0656738ZM6.22934 7.06011H3.16106V2.44609H6.22934C7.88327 2.44609 9.1044 2.79002 9.1044 4.76469C9.1044 6.73936 7.87941 7.08329 6.22934 7.08329" fill="#405C6A"/>
<path d="M25.7018 4.75315C25.7018 1.51484 23.8237 0.0695801 20.6202 0.0695801H14.1938C13.9888 0.0695801 13.7922 0.151006 13.6473 0.295947C13.5023 0.440887 13.4209 0.63747 13.4209 0.842447V11.3148C13.4239 11.524 13.5083 11.7237 13.6562 11.8716C13.8042 12.0196 14.0039 12.104 14.2131 12.107H15.7975C15.9022 12.1096 16.0064 12.091 16.1037 12.0521C16.201 12.0132 16.2894 11.955 16.3635 11.8809C16.4376 11.8068 16.4959 11.7184 16.5348 11.6211C16.5736 11.5237 16.5923 11.4195 16.5897 11.3148V9.42127H20.3844L21.594 11.3148C21.7361 11.5359 21.9263 11.722 22.1505 11.8592C22.3747 11.9964 22.627 12.0811 22.8885 12.107H24.9018C25.3501 12.107 25.4699 11.7631 25.1955 11.3148L23.6498 8.88412L23.5957 8.80297C24.9443 8.09967 25.6902 6.77034 25.6902 4.73383M16.5781 2.41523H19.6463C21.3003 2.41523 22.5253 2.75916 22.5253 4.73383C22.5253 6.70851 21.3003 7.05243 19.6463 7.05243H16.5781V2.44614V2.41523Z" fill="#405C6A"/>
<path d="M29.1294 0.0656738H27.5605C27.3555 0.0656738 27.1589 0.1471 27.014 0.292041C26.869 0.436981 26.7876 0.633563 26.7876 0.83854V11.3495C26.7876 11.5545 26.869 11.7511 27.014 11.896C27.1589 12.041 27.3555 12.1224 27.5605 12.1224H29.1294C29.3409 12.1224 29.544 12.0395 29.6951 11.8913C29.8461 11.7432 29.933 11.5417 29.937 11.3302V0.857857C29.931 0.648754 29.8428 0.450445 29.6917 0.305815C29.5405 0.161184 29.3385 0.0818562 29.1294 0.0849908" fill="#405C6A"/>
<path d="M43.4313 7.56255H42.4304C41.9474 7.56255 41.5532 7.78669 41.2247 8.49386C41.0589 8.90025 40.7718 9.2456 40.4025 9.48281C40.0332 9.72002 39.5997 9.83753 39.1612 9.81932H37.4879C35.007 9.81932 34.3346 8.90347 34.3346 6.09797C34.3346 3.29246 35.007 2.37661 37.4879 2.37661H38.9873C39.4265 2.35759 39.8608 2.47472 40.2309 2.71198C40.601 2.94924 40.8887 3.29504 41.0547 3.70208C41.3832 4.40925 41.7773 4.62953 42.2604 4.62953H43.2574C43.3761 4.6287 43.4934 4.60367 43.6022 4.55597C43.7109 4.50827 43.8088 4.4389 43.8898 4.3521C43.9708 4.26529 44.0333 4.16288 44.0734 4.05111C44.1135 3.93935 44.1304 3.82059 44.123 3.70208C44.123 1.25595 41.6228 5.18494e-05 39.281 5.18494e-05H37.4029C33.2835 -0.0115411 31.1543 1.92062 31.1543 6.09797C31.1543 10.2753 33.272 12.1959 37.3913 12.1959H39.4394C41.7812 12.1959 44.2776 10.94 44.2776 8.48999C44.286 8.37169 44.2702 8.25291 44.231 8.14096C44.1918 8.02902 44.1302 7.92626 44.0498 7.83903C43.9695 7.75179 43.8721 7.68192 43.7637 7.63371C43.6554 7.5855 43.5383 7.55997 43.4197 7.55868" fill="#405C6A"/>
<path d="M55.9247 0.0656738H46.2253C46.0203 0.0656738 45.8237 0.1471 45.6788 0.292041C45.5338 0.436981 45.4524 0.633563 45.4524 0.83854V11.3147C45.4498 11.4188 45.4678 11.5223 45.5052 11.6194C45.5427 11.7165 45.5989 11.8053 45.6707 11.8806C45.7425 11.956 45.8284 12.0165 45.9235 12.0586C46.0187 12.1008 46.1212 12.1237 46.2253 12.1263H55.8861C55.9908 12.1289 56.095 12.1102 56.1924 12.0714C56.2897 12.0325 56.3781 11.9742 56.4522 11.9001C56.5262 11.826 56.5845 11.7376 56.6234 11.6403C56.6622 11.543 56.6809 11.4388 56.6783 11.3341V10.5264C56.6783 10.3214 56.5968 10.1249 56.4519 9.97991C56.307 9.83497 56.1104 9.75355 55.9054 9.75355H48.6018V7.27265H54.9084C55.1179 7.27064 55.3182 7.18652 55.4663 7.03839C55.6145 6.89026 55.6986 6.68993 55.7006 6.48046V5.68827C55.6936 5.48217 55.6073 5.28673 55.4597 5.14273C55.3121 4.99872 55.1146 4.91728 54.9084 4.91541H48.6057V2.46929H55.9247C56.0295 2.47194 56.1337 2.45326 56.231 2.41439C56.3283 2.37552 56.4167 2.31727 56.4908 2.24317C56.5649 2.16907 56.6231 2.08067 56.662 1.98336C56.7009 1.88605 56.7196 1.78185 56.7169 1.67709V0.88491C56.7169 0.78177 56.6963 0.679664 56.6563 0.584613C56.6163 0.489563 56.5576 0.40349 56.4838 0.331465C56.4099 0.259439 56.3224 0.202914 56.2264 0.16523C56.1304 0.127546 56.0278 0.109465 55.9247 0.112044" fill="#405C6A"/>
<path d="M109.666 11.3341V0.861731C109.666 0.75859 109.645 0.656484 109.605 0.561434C109.565 0.466384 109.507 0.380311 109.433 0.308285C109.359 0.23626 109.271 0.179735 109.175 0.142051C109.079 0.104367 108.977 0.0862862 108.874 0.0888647H107.428C107.325 0.0862862 107.223 0.104367 107.127 0.142051C107.031 0.179735 106.943 0.23626 106.869 0.308285C106.796 0.380311 106.737 0.466384 106.697 0.561434C106.657 0.656484 106.636 0.75859 106.636 0.861731V8.6986L101.555 0.87718C101.43 0.671426 101.261 0.495585 101.061 0.36205C100.861 0.228515 100.633 0.140537 100.395 0.104314H97.9145C97.7095 0.104314 97.5129 0.18574 97.368 0.33068C97.223 0.475621 97.1416 0.672203 97.1416 0.87718V11.3495C97.1436 11.559 97.2277 11.7593 97.3759 11.9075C97.524 12.0556 97.7243 12.1397 97.9338 12.1417H99.4138C99.623 12.1387 99.8228 12.0543 99.9707 11.9064C100.119 11.7585 100.203 11.5587 100.206 11.3495V4.11549L104.843 11.3341C104.972 11.5515 105.149 11.7361 105.361 11.8736C105.573 12.011 105.813 12.0975 106.064 12.1263H108.854C108.959 12.1289 109.063 12.1102 109.161 12.0714C109.258 12.0325 109.346 11.9742 109.42 11.9001C109.495 11.826 109.553 11.7377 109.592 11.6403C109.631 11.543 109.649 11.4388 109.647 11.3341" fill="#405C6A"/>
<path d="M112.375 12.1263H113.94C114.152 12.1274 114.356 12.0449 114.508 11.8966C114.66 11.7484 114.747 11.5463 114.751 11.3341V0.861803C114.751 0.756277 114.729 0.651891 114.688 0.554737C114.647 0.457583 114.587 0.369596 114.511 0.295881C114.436 0.222165 114.346 0.164198 114.248 0.125354C114.15 0.0865093 114.045 0.067558 113.94 0.0696083H112.375C112.271 0.0696083 112.168 0.0901065 112.072 0.129918C111.975 0.169729 111.888 0.228074 111.815 0.301636C111.741 0.375197 111.683 0.462528 111.643 0.558641C111.603 0.654753 111.583 0.757772 111.583 0.861803V11.3496C111.582 11.4527 111.603 11.5548 111.643 11.6499C111.683 11.7449 111.742 11.831 111.816 11.903C111.889 11.9751 111.977 12.0316 112.073 12.0693C112.169 12.107 112.272 12.125 112.375 12.1225" fill="#405C6A"/>
<path d="M95.8393 12.1263C95.9286 12.1356 96.0187 12.122 96.1013 12.087C96.1839 12.0519 96.2562 11.9964 96.3114 11.9257C96.3667 11.855 96.403 11.7714 96.4171 11.6828C96.4312 11.5942 96.4225 11.5034 96.3919 11.4191L91.5538 0.927412C91.4664 0.676081 91.3031 0.458133 91.0864 0.303739C90.8697 0.149345 90.6103 0.0661523 90.3442 0.0656738H89.1386C88.873 0.0663841 88.6143 0.149723 88.3982 0.30414C88.1822 0.458557 88.0195 0.676389 87.9329 0.927412L83.0947 11.4152C83.0641 11.4996 83.0555 11.5903 83.0696 11.6789C83.0836 11.7675 83.12 11.8511 83.1752 11.9218C83.2305 11.9925 83.3028 12.048 83.3854 12.0831C83.468 12.1182 83.5581 12.1317 83.6474 12.1224H85.4906C85.7152 12.0997 85.9286 12.013 86.1053 11.8725C86.2821 11.7321 86.4148 11.5439 86.4876 11.3302L87.0093 10.1709H92.4812L93.0029 11.3302C93.0769 11.5439 93.2104 11.732 93.3877 11.8724C93.565 12.0127 93.7788 12.0995 94.0038 12.1224H95.847L95.8393 12.1263ZM87.8943 8.19236L89.7414 4.08071L91.5886 8.19236H87.8981H87.8943Z" fill="#405C6A"/>
<path d="M129.957 11.4191L125.115 0.931299C125.029 0.677678 124.865 0.457672 124.646 0.302354C124.428 0.147037 124.166 0.0642589 123.898 0.0656921H122.693C122.427 0.0669698 122.169 0.150527 121.953 0.304866C121.737 0.459205 121.574 0.67672 121.487 0.927431L116.649 11.4152C116.618 11.4996 116.609 11.5903 116.624 11.6789C116.638 11.7675 116.674 11.8511 116.729 11.9218C116.784 11.9925 116.857 12.048 116.939 12.0831C117.022 12.1182 117.112 12.1317 117.201 12.1224H119.045C119.27 12.0999 119.484 12.0134 119.661 11.873C119.838 11.7325 119.972 11.5442 120.045 11.3302L120.567 10.1709H126.039L126.561 11.3302C126.634 11.5436 126.767 11.7316 126.943 11.872C127.12 12.0123 127.333 12.0992 127.558 12.1224H129.401C129.49 12.1317 129.58 12.1182 129.663 12.0831C129.746 12.048 129.818 11.9925 129.873 11.9218C129.928 11.8511 129.965 11.7675 129.979 11.6789C129.993 11.5903 129.984 11.4996 129.954 11.4152M121.452 8.18851L123.299 4.07686L125.146 8.18851H121.452Z" fill="#405C6A"/>
<path d="M68.4451 4.78019C68.4451 4.78019 69.1059 6.10952 69.7512 7.60888L66.6598 0.884944C66.5731 0.63392 66.4105 0.416089 66.1945 0.261672C65.9784 0.107254 65.7197 0.0239037 65.4541 0.0231934H64.2484C63.9829 0.0239037 63.7241 0.107254 63.5081 0.261672C63.292 0.416089 63.1294 0.63392 63.0428 0.884944L58.2046 11.3766C58.174 11.4609 58.1653 11.5517 58.1794 11.6403C58.1935 11.7289 58.2299 11.8125 58.2851 11.8832C58.3404 11.9539 58.4127 12.0094 58.4952 12.0445C58.5778 12.0796 58.668 12.0931 58.7572 12.0838H60.6005C60.8251 12.0611 61.0384 11.9743 61.2152 11.8339C61.3919 11.6935 61.5246 11.5052 61.5975 11.2916L64.8551 4.03824L68.1128 11.2916C68.1859 11.5058 68.3192 11.6944 68.4967 11.8349C68.6742 11.9754 68.8883 12.0618 69.1136 12.0838H70.9569C70.9569 12.0838 71.6525 12.1456 71.6564 11.6007C71.6602 11.0559 68.4644 4.78019 68.4644 4.78019" fill="#F6921E"/>
</g>
<defs>
<clipPath id="clip0_3_887">
<rect width="130" height="12.1958" fill="white"/>
</clipPath>
</defs>
</svg>
