<svg width="108" height="20" viewBox="0 0 108 20" fill="none" xmlns="http://www.w3.org/2000/svg">
<path fill-rule="evenodd" clip-rule="evenodd" d="M10 15.466L10.967 16.021L13.1 17.233C14.5193 18.041 15.2257 18.445 15.219 18.445L16.176 19L15.922 17.964L15.365 15.68C14.9937 14.1573 14.808 13.3927 14.808 13.386L14.554 12.341L15.403 11.641L17.276 10.1L19.151 8.564L20 7.864L16.406 7.564L13.935 7.37L12.812 7.287L12.373 6.297L11.406 4.133C10.7613 2.69033 10.439 1.972 10.439 1.978L10 1L9.561 1.98L8.594 4.136C7.94933 5.57267 7.627 6.294 7.627 6.3L7.188 7.29L6.065 7.373L3.594 7.567L0 7.863L0.849 8.563L2.724 10.1L4.6 11.637L5.449 12.337L5.2 13.386L4.638 15.68C4.26667 17.2093 4.081 17.9707 4.081 17.964L3.828 19L4.785 18.445L6.9 17.233C8.31267 16.425 9.02233 16.021 9.029 16.021L10 15.466V15.466Z" fill="#FFD538"/>
<path fill-rule="evenodd" clip-rule="evenodd" d="M32 15.466L32.967 16.021L35.1 17.233C36.5193 18.041 37.2257 18.445 37.219 18.445L38.176 19L37.922 17.964L37.365 15.68C36.9937 14.1573 36.808 13.3927 36.808 13.386L36.554 12.341L37.403 11.641L39.276 10.1L41.151 8.564L42 7.864L38.406 7.564L35.935 7.37L34.812 7.287L34.373 6.297L33.406 4.133C32.7613 2.69033 32.439 1.972 32.439 1.978L32 1L31.561 1.98L30.594 4.136C29.9493 5.57267 29.627 6.294 29.627 6.3L29.188 7.29L28.065 7.373L25.594 7.567L22 7.863L22.849 8.563L24.724 10.1L26.6 11.637L27.449 12.337L27.2 13.386L26.638 15.68C26.2667 17.2093 26.081 17.9707 26.081 17.964L25.828 19L26.785 18.445L28.9 17.233C30.3127 16.425 31.0223 16.021 31.029 16.021L32 15.466V15.466Z" fill="#FFD538"/>
<path fill-rule="evenodd" clip-rule="evenodd" d="M54 15.466L54.967 16.021L57.1 17.233C58.5193 18.041 59.2257 18.445 59.219 18.445L60.176 19L59.922 17.964L59.365 15.68C58.9937 14.1573 58.808 13.3927 58.808 13.386L58.554 12.341L59.403 11.641L61.276 10.1L63.151 8.564L64 7.864L60.406 7.564L57.935 7.37L56.812 7.287L56.373 6.297L55.406 4.133C54.7613 2.69033 54.439 1.972 54.439 1.978L54 1L53.561 1.98L52.594 4.136C51.9493 5.57267 51.627 6.294 51.627 6.3L51.188 7.29L50.065 7.373L47.594 7.567L44 7.863L44.849 8.563L46.724 10.1L48.6 11.637L49.449 12.337L49.2 13.386L48.638 15.68C48.2667 17.2093 48.081 17.9707 48.081 17.964L47.828 19L48.785 18.445L50.9 17.233C52.3127 16.425 53.0223 16.021 53.029 16.021L54 15.466V15.466Z" fill="#FFD538"/>
<path fill-rule="evenodd" clip-rule="evenodd" d="M76 15.466L76.967 16.021L79.1 17.233C80.5193 18.041 81.2257 18.445 81.219 18.445L82.176 19L81.922 17.964L81.365 15.68C80.9937 14.1573 80.808 13.3927 80.808 13.386L80.554 12.341L81.403 11.641L83.276 10.1L85.151 8.564L86 7.864L82.406 7.564L79.935 7.37L78.812 7.287L78.373 6.297L77.406 4.133C76.7613 2.69033 76.439 1.972 76.439 1.978L76 1L75.561 1.98L74.594 4.136C73.9493 5.57267 73.627 6.294 73.627 6.3L73.188 7.29L72.065 7.373L69.594 7.567L66 7.863L66.849 8.563L68.724 10.1L70.6 11.637L71.449 12.337L71.2 13.386L70.638 15.68C70.2667 17.2093 70.081 17.9707 70.081 17.964L69.828 19L70.785 18.445L72.9 17.233C74.3127 16.425 75.0223 16.021 75.029 16.021L76 15.466V15.466Z" fill="#FFD538"/>
<path fill-rule="evenodd" clip-rule="evenodd" d="M98 15.466L98.967 16.021L101.1 17.233C102.519 18.041 103.226 18.445 103.219 18.445L104.176 19L103.922 17.964L103.365 15.68C102.994 14.1573 102.808 13.3927 102.808 13.386L102.554 12.341L103.403 11.641L105.276 10.1L107.151 8.564L108 7.864L104.406 7.564L101.935 7.37L100.812 7.287L100.373 6.297L99.406 4.133C98.7613 2.69033 98.439 1.972 98.439 1.978L98 1L97.561 1.98L96.594 4.136C95.9493 5.57267 95.627 6.294 95.627 6.3L95.188 7.29L94.065 7.373L91.594 7.567L88 7.863L88.849 8.563L90.724 10.1L92.6 11.637L93.449 12.337L93.2 13.386L92.638 15.68C92.2667 17.2093 92.081 17.9707 92.081 17.964L91.828 19L92.785 18.445L94.9 17.233C96.3127 16.425 97.0223 16.021 97.029 16.021L98 15.466V15.466Z" fill="#FFD538"/>
</svg>
