<svg width="64" height="64" viewBox="0 0 64 64" fill="none" xmlns="http://www.w3.org/2000/svg">
<path fill-rule="evenodd" clip-rule="evenodd" d="M54.4001 16H48.0001C47.1514 16 46.3375 16.3371 45.7374 16.9373C45.1372 17.5374 44.8001 18.3513 44.8001 19.2V54.4288C44.8001 55.2775 45.1372 56.0914 45.7374 56.6915C46.3375 57.2917 47.1514 57.6288 48.0001 57.6288H54.4001C55.2488 57.6288 56.0627 57.2917 56.6628 56.6915C57.263 56.0914 57.6001 55.2775 57.6001 54.4288V19.2C57.6001 18.3513 57.263 17.5374 56.6628 16.9373C56.0627 16.3371 55.2488 16 54.4001 16ZM38.4001 28.8H32.0001C31.1514 28.8 30.3375 29.1371 29.7374 29.7373C29.1372 30.3374 28.8001 31.1513 28.8001 32V54.4C28.8001 55.2487 29.1372 56.0626 29.7374 56.6627C30.3375 57.2629 31.1514 57.6 32.0001 57.6H38.4001C39.2488 57.6 40.0627 57.2629 40.6628 56.6627C41.263 56.0626 41.6001 55.2487 41.6001 54.4V32C41.6001 31.1513 41.263 30.3374 40.6628 29.7373C40.0627 29.1371 39.2488 28.8 38.4001 28.8ZM22.3681 41.6192H15.9681C15.1194 41.6192 14.3055 41.9563 13.7054 42.5565C13.1052 43.1566 12.7681 43.9705 12.7681 44.8192V54.4192C12.7681 55.2679 13.1052 56.0818 13.7054 56.6819C14.3055 57.2821 15.1194 57.6192 15.9681 57.6192H22.3681C23.2168 57.6192 24.0307 57.2821 24.6308 56.6819C25.231 56.0818 25.5681 55.2679 25.5681 54.4192V44.8192C25.5673 43.9727 25.2311 43.1611 24.6331 42.5619C24.0352 41.9628 23.2242 41.6249 22.3777 41.6224L22.3681 41.6192Z" fill="#84A4CF"/>
<path fill-rule="evenodd" clip-rule="evenodd" d="M35.4 21L35.4 5.00003L19.4 5.00003L25.8 11.4L13 24.2L16.2 27.4L29 14.6L35.4 21Z" fill="#84A4CF"/>
</svg>
