<svg width="20" height="20" viewBox="0 0 20 20" xmlns="http://www.w3.org/2000/svg">
<g clip-path="url(#clip0_555_978)">
<path fill-rule="evenodd" clip-rule="evenodd" d="M19 4.68013C18.509 5.39231 17.8885 6.00893 17.1697 6.49886V6.93629C17.1527 9.52818 16.1215 12.0139 14.2906 13.8764C13.3224 14.9112 12.1368 15.7259 10.8164 16.2639C9.49591 16.8019 8.07225 17.0502 6.64442 16.9916C4.64564 17.0016 2.68617 16.445 1 15.3883C1.29091 15.4278 1.58374 15.4521 1.87726 15.461C3.53497 15.4764 5.14877 14.9367 6.454 13.9305C5.68459 13.9132 4.93878 13.6656 4.31579 13.2207C3.70209 12.7996 3.24684 12.1908 3.02074 11.4887C3.24757 11.5295 3.47714 11.5538 3.70758 11.5615C4.04113 11.5502 4.3723 11.5017 4.69474 11.4169C3.87018 11.2551 3.1248 10.8251 2.57832 10.196C2.01776 9.58192 1.7115 8.78319 1.72 7.95759V7.91935C2.23403 8.19922 2.81043 8.3495 3.39779 8.35678C2.88047 8.05555 2.45544 7.62231 2.16761 7.10286C1.87978 6.58341 1.73986 5.99705 1.76263 5.40576C1.76452 4.78862 1.93571 4.18344 2.25811 3.65417C3.17772 4.77118 4.33245 5.67857 5.64268 6.31379C6.9529 6.94901 8.38747 7.29695 9.84747 7.33362C9.78657 7.07099 9.76078 6.80165 9.77074 6.53244C9.76021 6.06256 9.84978 5.59572 10.0337 5.16199C10.2176 4.72826 10.4917 4.33726 10.8384 4.01419C11.1861 3.68081 11.5981 3.41942 12.0502 3.24545C12.5022 3.07147 12.985 2.98845 13.4702 3.00129C13.9707 2.99497 14.467 3.09225 14.9269 3.28682C15.3868 3.4814 15.8001 3.76892 16.1399 4.13077C16.9767 3.98344 17.7793 3.6873 18.5083 3.25685C18.3834 3.67646 18.1738 4.06694 17.892 4.40493C17.6102 4.74292 17.2621 5.02146 16.8684 5.22388C17.6054 5.16426 18.3264 4.98033 19 4.68013Z"/>
</g>
<defs>
<clipPath id="clip0_555_978">
<rect width="20" height="20" fill="white"/>
</clipPath>
</defs>
</svg>
