<svg width="64" height="64" viewBox="0 0 64 64" fill="none" xmlns="http://www.w3.org/2000/svg">
<g clip-path="url(#clip0_2_6502)">
<path d="M33.323 5.09891C33.3232 5.58055 33.1806 6.05143 32.9131 6.452C32.6457 6.85256 32.2654 7.16482 31.8205 7.34927C31.3756 7.53373 30.886 7.58209 30.4136 7.48825C29.9412 7.39441 29.5072 7.16258 29.1666 6.82208C28.8259 6.48158 28.5939 6.04769 28.4999 5.57532C28.4058 5.10295 28.454 4.6133 28.6383 4.1683C28.8225 3.72331 29.1346 3.34295 29.5351 3.07535C29.9355 2.80774 30.4064 2.66492 30.888 2.66492C31.5336 2.66492 32.1528 2.92131 32.6095 3.37775C33.0661 3.83418 33.3227 4.45328 33.323 5.09891V5.09891Z" stroke="#C3E1FA" stroke-width="2" stroke-linejoin="round"/>
<path d="M26.039 47.7479C26.0388 48.1881 25.9081 48.6184 25.6634 48.9843C25.4187 49.3502 25.071 49.6354 24.6642 49.8037C24.2574 49.972 23.8099 50.016 23.3781 49.93C22.9464 49.844 22.5499 49.6319 22.2387 49.3205C21.9275 49.0092 21.7155 48.6126 21.6297 48.1808C21.5439 47.749 21.5881 47.3015 21.7566 46.8948C21.9251 46.4881 22.2104 46.1405 22.5764 45.896C22.9425 45.6514 23.3728 45.5209 23.813 45.5209C24.1054 45.5209 24.395 45.5785 24.6651 45.6904C24.9353 45.8023 25.1807 45.9664 25.3874 46.1732C25.5941 46.38 25.7581 46.6255 25.8699 46.8957C25.9817 47.1659 26.0392 47.4555 26.039 47.7479V47.7479Z" stroke="#C3E1FA" stroke-width="2" stroke-linejoin="round"/>
<path d="M18.1441 18.6119C18.1441 19.0523 18.0135 19.4829 17.7687 19.8491C17.524 20.2153 17.1762 20.5008 16.7693 20.6694C16.3624 20.8379 15.9146 20.882 15.4826 20.7961C15.0506 20.7102 14.6538 20.4981 14.3423 20.1866C14.0309 19.8752 13.8188 19.4784 13.7329 19.0464C13.6469 18.6144 13.691 18.1666 13.8596 17.7596C14.0281 17.3527 14.3136 17.0049 14.6798 16.7602C15.046 16.5155 15.4766 16.3849 15.9171 16.3849C16.5077 16.3849 17.0742 16.6195 17.4918 17.0371C17.9094 17.4548 18.1441 18.0212 18.1441 18.6119V18.6119Z" stroke="#C3E1FA" stroke-width="2" stroke-linejoin="round"/>
<path d="M8.90102 8.10397C8.90102 8.54443 8.77041 8.97499 8.5257 9.34122C8.281 9.70745 7.93318 9.99288 7.52625 10.1614C7.11932 10.33 6.67155 10.3741 6.23956 10.2882C5.80756 10.2022 5.41075 9.99013 5.0993 9.67868C4.78785 9.36723 4.57574 8.97042 4.48981 8.53842C4.40389 8.10643 4.44798 7.65867 4.61654 7.25174C4.7851 6.84481 5.07053 6.49699 5.43676 6.25229C5.80299 6.00758 6.23356 5.87695 6.67402 5.87695C6.96651 5.87682 7.25615 5.93436 7.52641 6.04623C7.79666 6.15811 8.04221 6.32214 8.24903 6.52896C8.45585 6.73578 8.61989 6.98134 8.73176 7.25159C8.84363 7.52184 8.90116 7.81148 8.90102 8.10397V8.10397Z" stroke="#C3E1FA" stroke-width="2" stroke-linejoin="round"/>
<path d="M51.8701 11.556C51.8699 12.0373 51.727 12.5078 51.4594 12.908C51.1918 13.3081 50.8116 13.6199 50.3668 13.804C49.9221 13.9881 49.4327 14.0361 48.9606 13.9421C48.4885 13.848 48.0549 13.6162 47.7146 13.2757C47.3743 12.9353 47.1426 12.5016 47.0488 12.0294C46.9549 11.5573 47.0032 11.068 47.1875 10.6233C47.3717 10.1786 47.6837 9.7985 48.0839 9.5311C48.4842 9.26369 48.9547 9.12097 49.4361 9.12097C49.7558 9.12097 50.0724 9.18395 50.3678 9.30634C50.6631 9.42872 50.9315 9.6081 51.1575 9.83423C51.3836 10.0604 51.5628 10.3288 51.6851 10.6242C51.8074 10.9196 51.8702 11.2362 51.8701 11.556V11.556Z" stroke="#C3E1FA" stroke-width="2" stroke-linejoin="round"/>
<path d="M48.829 36.2259C48.829 36.7694 48.6678 37.3007 48.3659 37.7526C48.0639 38.2045 47.6348 38.5567 47.1326 38.7647C46.6305 38.9727 46.078 39.0271 45.5449 38.9211C45.0118 38.8151 44.5222 38.5534 44.1379 38.169C43.7536 37.7847 43.4918 37.2951 43.3858 36.762C43.2798 36.2289 43.3342 35.6764 43.5422 35.1743C43.7502 34.6722 44.1024 34.243 44.5543 33.941C45.0062 33.6391 45.5375 33.4779 46.081 33.4779C46.8098 33.4779 47.5088 33.7674 48.0241 34.2828C48.5395 34.7981 48.829 35.4971 48.829 36.2259V36.2259Z" stroke="#C3E1FA" stroke-width="2" stroke-linejoin="round"/>
<path d="M9.94201 31.8799C9.94181 32.4232 9.78053 32.9542 9.47857 33.4058C9.1766 33.8574 8.7475 34.2094 8.24553 34.4171C7.74357 34.6249 7.19127 34.6791 6.65847 34.573C6.12567 34.4669 5.63629 34.2052 5.25222 33.821C4.86814 33.4368 4.60662 32.9473 4.50071 32.4145C4.3948 31.8817 4.44926 31.3294 4.6572 30.8275C4.86515 30.3256 5.21723 29.8966 5.66895 29.5948C6.12067 29.293 6.65174 29.132 7.195 29.132C7.92364 29.1322 8.62235 29.4218 9.13749 29.9372C9.65262 30.4525 9.94201 31.1513 9.94201 31.8799V31.8799Z" stroke="#C3E1FA" stroke-width="2" stroke-linejoin="round"/>
<path d="M36.8031 26.6909C36.8027 27.5029 36.5615 28.2965 36.1101 28.9715C35.6587 29.6465 35.0173 30.1724 34.267 30.4829C33.5167 30.7934 32.6911 30.8744 31.8948 30.7157C31.0984 30.5571 30.367 30.1659 29.793 29.5916C29.2189 29.0172 28.8281 28.2856 28.6698 27.4892C28.5115 26.6927 28.593 25.8673 28.9038 25.1171C29.2146 24.367 29.7409 23.7258 30.4161 23.2747C31.0913 22.8236 31.8851 22.5829 32.6971 22.5829C33.2364 22.5829 33.7705 22.6892 34.2688 22.8956C34.7671 23.1021 35.2198 23.4047 35.6012 23.7862C35.9825 24.1677 36.2849 24.6206 36.4911 25.119C36.6973 25.6174 36.8033 26.1515 36.8031 26.6909V26.6909Z" stroke="#C3E1FA" stroke-width="2" stroke-linejoin="round"/>
<path d="M8.14307 9.77197L14.4531 16.946" stroke="#C3E1FA" stroke-width="2" stroke-miterlimit="10"/>
<path d="M8.88208 7.8299L28.4741 5.3999" stroke="#C3E1FA" stroke-width="2" stroke-miterlimit="10"/>
<path d="M47.138 10.756L33.193 5.87695" stroke="#C3E1FA" stroke-width="2" stroke-miterlimit="10"/>
<path d="M49.108 13.9669L46.451 33.5029" stroke="#C3E1FA" stroke-width="2" stroke-miterlimit="10"/>
<path d="M36.042 29.0759L43.847 34.6259" stroke="#C3E1FA" stroke-width="2" stroke-miterlimit="10"/>
<path d="M24.6791 45.6959L31.1001 30.4799" stroke="#C3E1FA" stroke-width="2" stroke-miterlimit="10"/>
<path d="M28.6731 27.5129L9.88806 31.3319" stroke="#C3E1FA" stroke-width="2" stroke-miterlimit="10"/>
<path d="M8.70508 29.5839L14.6941 20.4719" stroke="#C3E1FA" stroke-width="2" stroke-miterlimit="10"/>
<path d="M17.568 17.1229L29.083 6.72888" stroke="#C3E1FA" stroke-width="2" stroke-miterlimit="10"/>
<path d="M31.0911 7.53491L32.3541 22.6029" stroke="#C3E1FA" stroke-width="2" stroke-miterlimit="10"/>
<path d="M9.18103 33.7759L22.205 46.2109" stroke="#C3E1FA" stroke-width="2" stroke-miterlimit="10"/>
<path d="M34.1601 34.1259V57.5069C34.1462 58.299 34.417 59.0699 34.9233 59.6793C35.4296 60.2887 36.1378 60.6963 36.9191 60.8279C40.4641 61.1659 43.8471 61.3279 47.2671 61.3279C50.2554 61.3501 53.2426 61.2066 56.2151 60.8979C57.8151 60.6559 59.5521 59.5639 59.5521 57.9909V21.8809C59.5786 21.4632 59.5222 21.0443 59.3862 20.6485C59.2503 20.2527 59.0373 19.8876 58.7597 19.5744C58.4821 19.2612 58.1453 19.006 57.7686 18.8234C57.392 18.6409 56.9829 18.5347 56.5651 18.5109C53.0221 18.1769 49.8921 18.0109 46.7501 18.0109C43.6081 18.0109 40.4661 18.1809 36.8881 18.5199C36.2101 18.6153 35.5856 18.9408 35.1191 19.4419" stroke="#C3E1FA" stroke-width="2" stroke-miterlimit="10"/>
<path d="M43.7321 57.3059H49.7511" stroke="#C3E1FA" stroke-width="2" stroke-miterlimit="10" stroke-linecap="round"/>
<path d="M34.16 53.6869H59.323" stroke="#C3E1FA" stroke-width="2" stroke-miterlimit="10"/>
<path d="M39.4171 24.5869H59.3231" stroke="#C3E1FA" stroke-width="2" stroke-miterlimit="10"/>
</g>
<defs>
<clipPath id="clip0_2_6502">
<rect width="64" height="64" fill="white"/>
</clipPath>
</defs>
</svg>
