<svg width="20" height="20" viewBox="0 0 20 20" xmlns="http://www.w3.org/2000/svg">
<g clip-path="url(#clip0_555_969)">
<path fill-rule="evenodd" clip-rule="evenodd" d="M5 4H15C15.7956 4 16.5587 4.31607 17.1213 4.87868C17.6839 5.44129 18 6.20435 18 7V13C18 13.7956 17.6839 14.5587 17.1213 15.1213C16.5587 15.6839 15.7956 16 15 16H5C4.20435 16 3.44129 15.6839 2.87868 15.1213C2.31607 14.5587 2 13.7956 2 13V7C2 6.20435 2.31607 5.44129 2.87868 4.87868C3.44129 4.31607 4.20435 4 5 4ZM13 10L8 7V13L13 10Z"/>
</g>
<defs>
<clipPath id="clip0_555_969">
<rect width="20" height="20" fill="white"/>
</clipPath>
</defs>
</svg>
