<?xml version="1.0" encoding="UTF-8"?><!DOCTYPE svg PUBLIC "-//W3C//DTD SVG 1.1//EN" "http://www.w3.org/Graphics/SVG/1.1/DTD/svg11.dtd"><svg xmlns="http://www.w3.org/2000/svg" xmlns:xlink="http://www.w3.org/1999/xlink"><defs><clipPath id="benefit-1-a"><path fill="#fff" d="M0 0h64v64H0z"/></clipPath><clipPath id="benefit-2-a"><path fill="#fff" d="M0 0h64v64H0z"/></clipPath><clipPath id="benefit-3-a"><path fill="#fff" d="M0 0h64v64H0z"/></clipPath><clipPath id="benefit-4-a"><path fill="#fff" d="M0 0h64v64H0z"/></clipPath><clipPath id="benefit-5-a"><path fill="#fff" d="M0 0h64v64H0z"/></clipPath><clipPath id="cena-vykon-a"><path fill="#fff" d="M0 0h149.186v30H0z"/></clipPath><clipPath id="discount-a"><path fill="#fff" d="M0 0h64v64H0z"/></clipPath><clipPath id="icon-register-a"><path fill="#fff" d="M0 0h24v24H0z"/></clipPath><clipPath id="pricemania-a"><path fill="#fff" d="M0 0h130v12.196H0z"/></clipPath><clipPath id="usp-1-a"><path fill="#fff" d="M0 0h64v64H0z"/></clipPath><clipPath id="usp-2-a"><path fill="#fff" d="M0 0h64v64H0z"/></clipPath><clipPath id="usp-3-a"><path fill="#fff" d="M0 0h64v64H0z"/></clipPath><clipPath id="usp-4-a"><path fill="#fff" d="M0 0h64v64H0z"/></clipPath><clipPath id="usp-5-a"><path fill="#fff" d="M0 0h64v64H0z"/></clipPath></defs><symbol id="affiliate-white"><g fill="none"><path fill-rule="evenodd" clip-rule="evenodd" d="M65.078 26.587h-7.106v-.888c0-.647.08-1.373.16-2.26-1.514 2.34-3.513 3.551-6.069 3.551a5.493 5.493 0 0 1-2.234-.33 5.534 5.534 0 0 1-1.918-1.203 5.24 5.24 0 0 1-1.155-1.78 5.278 5.278 0 0 1-.36-2.095 5.866 5.866 0 0 1 .959-3.229 6.922 6.922 0 0 1 2.475-2.34 9.885 9.885 0 0 1 3.274-1.13c1.118-.162 3.274-.404 6.468-.727.14-.361.22-.743.24-1.13 0-1.05-.642-1.534-2.077-1.534-1.358 0-2.396.727-3.114 2.099l-5.91-1.293C50.31 8.746 53.663 7.05 58.774 7.05c2.555 0 4.632.484 6.07 1.373a4.65 4.65 0 0 1 1.621 1.766 4.7 4.7 0 0 1 .533 2.348c0 .807-.56 3.713-1.514 8.637a21.062 21.062 0 0 0-.56 3.632c.012.596.064 1.19.155 1.78Zm-11.259-5.65c0 1.049.48 1.614 1.597 1.614a3.075 3.075 0 0 0 2.076-.969c.72-.727 1.118-2.018 1.358-3.955-3.274.243-4.951 1.372-5.03 3.31Zm-8.145.888-.878 4.76h-16.29l.798-4.277 9.26-10.09H31.78l.878-4.6h15.65l-.72 3.632-9.74 10.575h7.826ZM31.7 1l-4.71 25.667h-6.948L24.753 1H31.7ZM18.684 26.587H11.58v-.888c0-.647.08-1.373.16-2.26-1.515 2.34-3.514 3.551-6.07 3.551a5.494 5.494 0 0 1-2.234-.33 5.534 5.534 0 0 1-1.918-1.203 5.24 5.24 0 0 1-1.155-1.78 5.28 5.28 0 0 1-.36-2.095 5.866 5.866 0 0 1 .954-3.228 6.922 6.922 0 0 1 2.476-2.34 9.885 9.885 0 0 1 3.273-1.13c1.118-.162 3.274-.404 6.468-.727.14-.361.221-.743.24-1.13 0-1.05-.641-1.534-2.077-1.534-1.357 0-2.395.726-3.114 2.098l-5.91-1.293C3.91 8.747 7.264 7.052 12.375 7.052c2.555 0 4.632.484 6.07 1.372a4.65 4.65 0 0 1 1.621 1.767c.378.722.562 1.531.533 2.348 0 .807-.56 3.713-1.514 8.636a21.08 21.08 0 0 0-.56 3.633c.014.596.067 1.19.16 1.779Zm-6.228-8.959c-3.274.242-4.95 1.372-5.03 3.31 0 1.048.479 1.613 1.596 1.613a3.078 3.078 0 0 0 2.077-.968c.718-.727 1.117-2.018 1.357-3.955Z" fill="#fff"/><path d="M92.592 26.443h-7.406a8.762 8.762 0 0 1-.056-.872c0-.63.044-1.373.131-2.227-1.487 2.35-3.562 3.526-6.224 3.526-1.8 0-3.256-.513-4.368-1.54C73.556 24.303 73 23.017 73 21.47c0-1.15.3-2.202.9-3.154.6-.965 1.45-1.732 2.55-2.302 1.1-.569 2.224-.94 3.374-1.113 1.15-.185 3.4-.433 6.75-.742.15-.458.225-.817.225-1.077 0-1.026-.725-1.54-2.175-1.54-1.425 0-2.475.7-3.15 2.097l-6.168-1.243c1.562-3.476 5-5.215 10.312-5.215 2.687 0 4.8.464 6.337 1.392 1.537.916 2.306 2.27 2.306 4.064 0 .804-.45 3.65-1.35 8.536-.338 1.819-.506 3.025-.506 3.619 0 .482.062 1.033.187 1.651Zm-6.674-8.907c-3.438.26-5.156 1.348-5.156 3.266 0 1.052.556 1.577 1.668 1.577.713 0 1.425-.315 2.138-.946.712-.63 1.162-1.93 1.35-3.897ZM111.809 7.701l-.825 4.788h-4.706l-2.362 13.954H96.96l2.363-13.954h-3.075l.806-4.788h3.075c.337-2.202.812-3.76 1.425-4.676.625-.928 1.543-1.664 2.756-2.209C105.522.272 107.053 0 108.903 0c1.625 0 3.112.167 4.462.501l-.75 4.51c-.975-.137-1.743-.205-2.306-.205-1.262 0-2.112.229-2.549.687-.425.445-.65 1.181-.675 2.208h4.724ZM127.558 7.701l-.825 4.788h-4.706l-2.362 13.954h-6.956l2.362-13.954h-3.074l.806-4.788h3.075c.337-2.202.812-3.76 1.424-4.676.625-.928 1.544-1.664 2.756-2.209C121.271.272 122.802 0 124.652 0c1.625 0 3.112.167 4.462.501l-.75 4.51c-.975-.137-1.744-.205-2.306-.205-1.262 0-2.112.229-2.55.687-.425.445-.65 1.181-.675 2.208h4.725ZM138.301.52l-.938 5.51h-7.349l.937-5.51h7.35ZM137.082 7.7l-3.169 18.742h-7.349l3.169-18.742h7.349ZM149.325 1.113l-4.275 25.33h-7.199l4.274-25.33h7.2ZM160.724.52l-.938 5.51h-7.349l.937-5.51h7.35ZM159.505 7.7l-3.168 18.742h-7.35l3.169-18.742h7.349ZM179.697 26.443h-7.406a8.907 8.907 0 0 1-.056-.872c0-.63.044-1.373.131-2.227-1.487 2.35-3.562 3.526-6.224 3.526-1.8 0-3.256-.513-4.368-1.54-1.113-1.027-1.669-2.313-1.669-3.86 0-1.15.3-2.202.9-3.154.6-.965 1.45-1.732 2.55-2.302 1.1-.569 2.224-.94 3.374-1.113 1.15-.185 3.4-.433 6.75-.742.15-.458.225-.817.225-1.077 0-1.026-.725-1.54-2.175-1.54-1.425 0-2.475.7-3.15 2.097l-6.168-1.243c1.562-3.476 5-5.215 10.312-5.215 2.687 0 4.799.464 6.337 1.392 1.537.916 2.306 2.27 2.306 4.064 0 .804-.45 3.65-1.35 8.536-.338 1.819-.506 3.025-.506 3.619 0 .482.062 1.033.187 1.651Zm-6.674-8.907c-3.438.26-5.156 1.348-5.156 3.266 0 1.052.556 1.577 1.668 1.577.713 0 1.425-.315 2.138-.946.712-.63 1.162-1.93 1.35-3.897ZM197.264 7.701l-.825 4.788h-3.431l-1.125 6.68c-.112.656-.168 1.07-.168 1.243 0 .916.587 1.374 1.762 1.374.513 0 1.106-.075 1.781-.223l-.825 4.88c-1.35.285-2.643.427-3.881.427-1.537 0-2.681-.192-3.431-.575a4.882 4.882 0 0 1-1.818-1.633c-.463-.705-.694-1.633-.694-2.784 0-.482.113-1.385.338-2.709l1.125-6.68h-2.607l.807-4.788h2.624l1.032-5.548 6.862-.13-.957 5.678h3.431ZM217.794 18.464h-13.049a10.11 10.11 0 0 0-.094 1.132c0 .816.263 1.453.788 1.911.537.458 1.212.687 2.024.687 1.538 0 2.625-.786 3.263-2.357l6.374 1.02c-.825 1.832-2.162 3.316-4.012 4.454-1.837 1.126-3.881 1.689-6.131 1.689-2.825 0-5.118-.792-6.88-2.375-1.75-1.596-2.625-3.767-2.625-6.514 0-2.981 1.037-5.536 3.112-7.664 2.075-2.14 4.787-3.21 8.137-3.21 2.837 0 5.093.829 6.768 2.487 1.687 1.657 2.531 3.86 2.531 6.606 0 .619-.069 1.33-.206 2.134Zm-6.825-3.619c.063-.383.094-.68.094-.89 0-.668-.212-1.25-.637-1.745-.413-.495-.994-.742-1.744-.742-.8 0-1.525.303-2.175.91-.65.593-1.05 1.416-1.2 2.467h5.662Z" fill="#fff"/></g></symbol><symbol id="affiliate"><g fill="none"><path fill-rule="evenodd" clip-rule="evenodd" d="M65.078 26.587h-7.106v-.888c0-.647.08-1.373.16-2.26-1.514 2.34-3.513 3.551-6.069 3.551a5.493 5.493 0 0 1-2.234-.33 5.534 5.534 0 0 1-1.918-1.203 5.24 5.24 0 0 1-1.155-1.78 5.278 5.278 0 0 1-.36-2.095 5.866 5.866 0 0 1 .959-3.229 6.922 6.922 0 0 1 2.475-2.34 9.885 9.885 0 0 1 3.274-1.13c1.118-.162 3.274-.404 6.468-.727.14-.361.22-.743.24-1.13 0-1.05-.642-1.534-2.077-1.534-1.358 0-2.396.727-3.114 2.099l-5.91-1.293C50.31 8.746 53.663 7.05 58.774 7.05c2.555 0 4.632.484 6.07 1.373a4.65 4.65 0 0 1 1.621 1.766 4.7 4.7 0 0 1 .533 2.348c0 .807-.56 3.713-1.514 8.637a21.062 21.062 0 0 0-.56 3.632c.012.596.064 1.19.155 1.78Zm-11.259-5.65c0 1.049.48 1.614 1.597 1.614a3.075 3.075 0 0 0 2.076-.969c.72-.727 1.118-2.018 1.358-3.955-3.274.243-4.951 1.372-5.03 3.31Zm-8.145.888-.878 4.76h-16.29l.798-4.277 9.26-10.09H31.78l.878-4.6h15.65l-.72 3.632-9.74 10.575h7.826ZM31.7 1l-4.71 25.667h-6.948L24.753 1H31.7ZM18.684 26.587H11.58v-.888c0-.647.08-1.373.16-2.26-1.515 2.34-3.514 3.551-6.07 3.551a5.494 5.494 0 0 1-2.234-.33 5.534 5.534 0 0 1-1.918-1.203 5.24 5.24 0 0 1-1.155-1.78 5.28 5.28 0 0 1-.36-2.095 5.866 5.866 0 0 1 .954-3.228 6.922 6.922 0 0 1 2.476-2.34 9.885 9.885 0 0 1 3.273-1.13c1.118-.162 3.274-.404 6.468-.727.14-.361.221-.743.24-1.13 0-1.05-.641-1.534-2.077-1.534-1.357 0-2.395.726-3.114 2.098l-5.91-1.293C3.91 8.747 7.264 7.052 12.375 7.052c2.555 0 4.632.484 6.07 1.372a4.65 4.65 0 0 1 1.621 1.767c.378.722.562 1.531.533 2.348 0 .807-.56 3.713-1.514 8.636a21.08 21.08 0 0 0-.56 3.633c.014.596.067 1.19.16 1.779Zm-6.228-8.959c-3.274.242-4.95 1.372-5.03 3.31 0 1.048.479 1.613 1.596 1.613a3.078 3.078 0 0 0 2.077-.968c.718-.727 1.117-2.018 1.357-3.955Z" fill="#212121"/><path d="M92.592 26.443h-7.406a8.762 8.762 0 0 1-.056-.872c0-.63.044-1.373.131-2.227-1.487 2.35-3.562 3.526-6.224 3.526-1.8 0-3.256-.513-4.368-1.54C73.556 24.303 73 23.017 73 21.47c0-1.15.3-2.202.9-3.154.6-.965 1.45-1.732 2.55-2.302 1.1-.569 2.224-.94 3.374-1.113 1.15-.185 3.4-.433 6.75-.742.15-.458.225-.817.225-1.077 0-1.026-.725-1.54-2.175-1.54-1.425 0-2.475.7-3.15 2.097l-6.168-1.243c1.562-3.476 5-5.215 10.312-5.215 2.687 0 4.8.464 6.337 1.392 1.537.916 2.306 2.27 2.306 4.064 0 .804-.45 3.65-1.35 8.536-.338 1.819-.506 3.025-.506 3.619 0 .482.062 1.033.187 1.651Zm-6.674-8.907c-3.438.26-5.156 1.348-5.156 3.266 0 1.052.556 1.577 1.668 1.577.713 0 1.425-.315 2.138-.946.712-.63 1.162-1.93 1.35-3.897ZM111.809 7.701l-.825 4.788h-4.706l-2.362 13.954H96.96l2.363-13.954h-3.075l.806-4.788h3.075c.337-2.202.812-3.76 1.425-4.676.625-.928 1.543-1.664 2.756-2.209C105.522.272 107.053 0 108.903 0c1.625 0 3.112.167 4.462.501l-.75 4.51c-.975-.137-1.743-.205-2.306-.205-1.262 0-2.112.229-2.549.687-.425.445-.65 1.181-.675 2.208h4.724ZM127.558 7.701l-.825 4.788h-4.706l-2.362 13.954h-6.956l2.362-13.954h-3.074l.806-4.788h3.075c.337-2.202.812-3.76 1.424-4.676.625-.928 1.544-1.664 2.756-2.209C121.271.272 122.802 0 124.652 0c1.625 0 3.112.167 4.462.501l-.75 4.51c-.975-.137-1.744-.205-2.306-.205-1.262 0-2.112.229-2.55.687-.425.445-.65 1.181-.675 2.208h4.725ZM138.301.52l-.938 5.51h-7.349l.937-5.51h7.35ZM137.082 7.7l-3.169 18.742h-7.349l3.169-18.742h7.349ZM149.325 1.113l-4.275 25.33h-7.199l4.274-25.33h7.2ZM160.724.52l-.938 5.51h-7.349l.937-5.51h7.35ZM159.505 7.7l-3.168 18.742h-7.35l3.169-18.742h7.349ZM179.697 26.443h-7.406a8.907 8.907 0 0 1-.056-.872c0-.63.044-1.373.131-2.227-1.487 2.35-3.562 3.526-6.224 3.526-1.8 0-3.256-.513-4.368-1.54-1.113-1.027-1.669-2.313-1.669-3.86 0-1.15.3-2.202.9-3.154.6-.965 1.45-1.732 2.55-2.302 1.1-.569 2.224-.94 3.374-1.113 1.15-.185 3.4-.433 6.75-.742.15-.458.225-.817.225-1.077 0-1.026-.725-1.54-2.175-1.54-1.425 0-2.475.7-3.15 2.097l-6.168-1.243c1.562-3.476 5-5.215 10.312-5.215 2.687 0 4.799.464 6.337 1.392 1.537.916 2.306 2.27 2.306 4.064 0 .804-.45 3.65-1.35 8.536-.338 1.819-.506 3.025-.506 3.619 0 .482.062 1.033.187 1.651Zm-6.674-8.907c-3.438.26-5.156 1.348-5.156 3.266 0 1.052.556 1.577 1.668 1.577.713 0 1.425-.315 2.138-.946.712-.63 1.162-1.93 1.35-3.897ZM197.264 7.701l-.825 4.788h-3.431l-1.125 6.68c-.112.656-.168 1.07-.168 1.243 0 .916.587 1.374 1.762 1.374.513 0 1.106-.075 1.781-.223l-.825 4.88c-1.35.285-2.643.427-3.881.427-1.537 0-2.681-.192-3.431-.575a4.882 4.882 0 0 1-1.818-1.633c-.463-.705-.694-1.633-.694-2.784 0-.482.113-1.385.338-2.709l1.125-6.68h-2.607l.807-4.788h2.624l1.032-5.548 6.862-.13-.957 5.678h3.431ZM217.794 18.464h-13.049a10.11 10.11 0 0 0-.094 1.132c0 .816.263 1.453.788 1.911.537.458 1.212.687 2.024.687 1.538 0 2.625-.786 3.263-2.357l6.374 1.02c-.825 1.832-2.162 3.316-4.012 4.454-1.837 1.126-3.881 1.689-6.131 1.689-2.825 0-5.118-.792-6.88-2.375-1.75-1.596-2.625-3.767-2.625-6.514 0-2.981 1.037-5.536 3.112-7.664 2.075-2.14 4.787-3.21 8.137-3.21 2.837 0 5.093.829 6.768 2.487 1.687 1.657 2.531 3.86 2.531 6.606 0 .619-.069 1.33-.206 2.134Zm-6.825-3.619c.063-.383.094-.68.094-.89 0-.668-.212-1.25-.637-1.745-.413-.495-.994-.742-1.744-.742-.8 0-1.525.303-2.175.91-.65.593-1.05 1.416-1.2 2.467h5.662Z" fill="#1653A4"/></g></symbol><symbol id="alzashop"><g fill="none"><path fill-rule="evenodd" clip-rule="evenodd" d="M36.742 24.554 34.56 15.04h19.805l5.475 9.514H36.742Zm.656 2.854h18.784v21.258a1.546 1.546 0 0 1-1.513 1.574H16.554a1.546 1.546 0 0 1-1.514-1.574v-3.997l21.085-5.328-1.098-4.253 3.898-1.043-1.527-6.637Zm13.3 11.418H40.64V50.24h10.058V38.826ZM6.79 18.7l-.857-3.818L29.12 9.6l5.267 23.36-3.597.82.864 3.84-23.187 5.26L3.2 19.52l3.59-.82ZM28.083 35.29c-.112-.682-.166-1.248-.278-1.703.104-1.315.29-2.622.557-3.913.89-5.274 1.392-8.32 1.392-9.184a4.8 4.8 0 0 0-2.394-4.365 12.94 12.94 0 0 0-6.624-1.475c-5.51 0-9.13 1.872-10.742 5.612l6.457 1.36a3.434 3.434 0 0 1 3.283-2.268c1.504 0 2.282.566 2.282 1.644-.014.387-.09.77-.224 1.133-3.453.34-5.846.624-7.014.794a10.715 10.715 0 0 0-3.52 1.19 6.271 6.271 0 0 0-2.672 2.439 6.509 6.509 0 0 0-.96 3.401 5.411 5.411 0 0 0 1.724 4.138 6.454 6.454 0 0 0 4.564 1.645 7.245 7.245 0 0 0 6.512-3.799c-.055.909-.112 1.703-.112 2.381-.007.32.011.642.054.96l7.715.01Zm-12.358-6.08c0-2.042 1.837-3.232 5.398-3.52a6.282 6.282 0 0 1-1.446 4.195c-.589.614-1.39.98-2.24 1.02a1.509 1.509 0 0 1-1.712-1.68v-.015Z" fill="#84A4CF"/></g></symbol><symbol id="benefit-1"><g fill="none"><g clip-path="url(#benefit-1-a)" stroke="#C3E1FA" stroke-width="2" stroke-linejoin="round"><path d="M31.307 24.209H6.584a1.775 1.775 0 0 0-1.778 1.778v19.739"/><path d="M24.436 45.726H3.427a1.348 1.348 0 0 0-1.349 1.346l.448 2.382c.224.745.6 1.348 1.348 1.348h20.562M24.156 31.523a4.09 4.09 0 1 0-8.18-.002 4.09 4.09 0 0 0 8.18.002ZM25.665 40.783a7.06 7.06 0 0 0-5.6-2.19c-3.575 0-6.476 1.734-6.476 4.762M61.922 54.143V46.97c0-7.949-7.606-12.5-16.993-12.5-9.387 0-16.992 4.55-16.992 12.5v7.174M55.248 20.17a10.317 10.317 0 1 0-20.633.01 10.317 10.317 0 0 0 20.633-.01Z"/><path d="M5.905 48.263h.301" stroke-linecap="round"/></g></g></symbol><symbol id="benefit-2"><g fill="none"><g clip-path="url(#benefit-2-a)" stroke="#C3E1FA" stroke-width="2"><path d="M35.446 31.147 58.73 44.776 28.55 62.349 5.268 49.117l12.281-7.32" stroke-linejoin="round"/><path d="M43.718 9.626c-2.556-1.465-3.835-2.194-6.39-3.66a1.348 1.348 0 0 0-1.772.18 203.083 203.083 0 0 0-11.793 21.97c-4.04 8.823-2.847 10.971-2.847 10.971-.288.818-.749 2.489.085 2.967.834.478 2.023-.742 2.583-1.409 0 0 2.49-.109 8.155-8.231a188.245 188.245 0 0 0 12.72-21.171 1.352 1.352 0 0 0-.74-1.617Z" stroke-linejoin="round"/><path d="M31.78 5.435a88.668 88.668 0 0 0-7.464 13.038" stroke-linecap="round" stroke-linejoin="round"/><path d="m23.762 28.117 7.976 4.297M43.263 9.368 45 6.33c.21-.362-.048-.9-.574-1.2l-3.568-2.041c-.526-.3-1.12-.252-1.327.11l-1.739 3.038"/><path d="M32 36.551a46.88 46.88 0 0 1 4.533 2.114c1.094.589 2.123.892 1.537 2.113.729.274 1.095-.194 1.809-.166.863.037.8.625.43 1.273.424-.057.918-.369 1.035.062.1.354-.288.723-.468.977.75-.412 1.8-1.734 2.829-.532.553.645-.105 1.3-.565 1.993.846-.827 3.039-2.735 2.78-.356a5.384 5.384 0 0 1-1.013 2.211 13.089 13.089 0 0 1-2.766 2.875s5.941-3.552 7.977-3.523" stroke-linecap="round" stroke-linejoin="round"/></g></g></symbol><symbol id="benefit-3"><g fill="none"><g clip-path="url(#benefit-3-a)" stroke="#C3E1FA" stroke-width="2"><path d="M32 2.182a11.479 11.479 0 1 0 .003 22.958A11.479 11.479 0 0 0 32 2.182Z" stroke-linejoin="round"/><path d="M47.431 50.59h9.264M47.434 55.22h3.7a.678.678 0 0 1 .636 1.052l-3.907 5.088c-.44.581-.854.442-1.37.442H17.503c-.514 0-.779.1-1.067-.392l-4.21-5.138a.677.677 0 0 1 .636-1.052h3.708" stroke-miterlimit="10"/><path d="M52.18 50.59v-7.164c0-7.36-8.3-14.553-20.18-14.553-11.88 0-20.18 5.818-20.18 14.553v7.164" stroke-linejoin="round"/><path d="M16.571 61.593v-20.59a.937.937 0 0 1 .933-.937h28.989a.94.94 0 0 1 .938.937V61.73" stroke-miterlimit="10"/><path d="M31.89 50.938h.222" stroke-miterlimit="10" stroke-linecap="round"/><path d="M7.307 50.59h9.264" stroke-miterlimit="10"/></g></g></symbol><symbol id="benefit-4"><g fill="none"><g clip-path="url(#benefit-4-a)" stroke="#C3E1FA" stroke-width="2" stroke-miterlimit="10"><path d="M19.127 14.546c-1.3-3.9-6.205-4.759-7.6-3.93-1.594.949 1.939 7-1.857 18.217-1.571 4.624-3.029 9.139-3.324 12.974-1.138 14.8 13.071 22.29 22.47 18.307l13.821-5.95"/><path d="M49.057 27.127V7.373a3.94 3.94 0 0 0-3.281-3.951c-4.215-.4-7.938-.6-11.675-.6-3.737 0-7.474.2-11.731.605a3.931 3.931 0 0 0-3.243 3.944v42.442a3.936 3.936 0 0 0 3.28 3.95c4.218.4 8.24.6 12.309.6a95.986 95.986 0 0 0 10.644-.511c1.9-.289 3.968-1.586 3.968-3.458"/><path d="M55.36 36.52a3.233 3.233 0 0 0-3.037-2.054 3.099 3.099 0 0 0-1.223.245l-3.505 1.532a3.407 3.407 0 0 0-1.751 4.4 3.238 3.238 0 0 0 3.036 2.053 3.1 3.1 0 0 0 1.225-.247l3.5-1.532a3.4 3.4 0 0 0 1.755-4.397ZM50.152 50.18l3.17-1.386a3.079 3.079 0 0 0 1.582-3.979 2.922 2.922 0 0 0-2.742-1.857 2.787 2.787 0 0 0-1.109.222l-3.169 1.383a3.082 3.082 0 0 0-1.582 3.983 2.923 2.923 0 0 0 2.745 1.855c.38.002.756-.073 1.105-.22ZM45.859 32.191a3.243 3.243 0 0 0 3.037 2.054c.42.002.837-.082 1.224-.246l2.376-1.084a3.406 3.406 0 0 0 1.752-4.4 3.244 3.244 0 0 0-3.037-2.056 3.081 3.081 0 0 0-1.226.246l-2.375 1.087a3.4 3.4 0 0 0-1.751 4.399Z"/><path d="M30.513 49.568h7.158M32.854 6.884h2.474" stroke-linecap="round"/><path d="M19.127 45.265h27.768M19.127 10.651h29.93M49.057 23.373l6.4-2.738a3.851 3.851 0 0 0 1.978-4.977 3.285 3.285 0 0 0-4.332-2.043c-.577.166-3.285 1.122-4.045 1.442"/></g></g></symbol><symbol id="benefit-5"><g fill="none"><g clip-path="url(#benefit-5-a)" stroke="#C3E1FA" stroke-width="2" stroke-linejoin="round"><path d="M14.849 41.988c1.315 2.725 3.419 7.075 4.656 9.594a4.539 4.539 0 0 0 4.167 2.873h12.7c2.461 0 3.9-1.2 3.9-3.426a3.055 3.055 0 0 0-2.223-3.25l-11.076-1.158-4.458-10.487c-1.827-4.5-5.036-6.442-8.523-6.442-4.785 0-8.4 2.8-9.409 9.186L2.569 53.256h14.573" stroke-linecap="round"/><path d="M9.659 18.196a8.651 8.651 0 1 0 17.302 0 8.651 8.651 0 0 0-17.302 0ZM61.433 44.359l-27.115-6.347v-22.41l27.114 5.469.001 23.288ZM31.65 47.085l-2.6-.627 8.049-3.706 21.143 5.084-8.049 3.706-10.416-2.5M43.765 40.215v4.145M48.972 41.473v4.145"/><path d="m37.054 19.16.273.055" stroke-linecap="round"/></g></g></symbol><symbol id="cena-vykon"><g fill="none"><g clip-path="url(#cena-vykon-a)"><path d="M51.254 0h15.268l2.52 4.26H58.69L69.059 21.79l5.193-8.778 2.427 4.104L69.06 30 51.254 0Z" fill="#F00A28"/><path d="M62.079 6.247h4.854l2.11 3.568L74.85 0h4.854l-10.66 18.023L62.08 6.247Z" fill="#F00A28"/><path d="M84.87 9.153h3.635l2.676 7.455 2.693-7.455h3.567l-4.78 11.863h-3.028L84.87 9.153ZM102.827 16.523l-4.493-7.37h3.719l2.423 4.291 2.44-4.291h3.652l-4.477 7.32v4.46h-3.265v-4.41h.001Zm2.188-10.904 3.045.926-2.49 1.8h-2.373l1.818-2.726ZM111.894 9.153h3.265v4.779l4.072-4.78h3.854l-4.46 5.049 4.611 6.731h-3.904l-2.979-4.375-1.194 1.312v3.063h-3.265V9.152Z" fill="#000"/><mask id="cena-vykon-b" style="mask-type:luminance" maskUnits="userSpaceOnUse" x="-80" y="-94" width="309" height="218"><path d="M228.248-93.763H-79.393v217.526h307.641V-93.763Z" fill="#fff"/></mask><g mask="url(#cena-vykon-b)"><path d="M123.375 15.076v-.034c0-3.382 2.726-6.125 6.361-6.125s6.327 2.71 6.327 6.091v.034c0 3.383-2.726 6.126-6.361 6.126-3.634 0-6.327-2.71-6.327-6.092Zm9.34 0v-.034c0-1.716-1.211-3.18-3.012-3.18s-2.995 1.447-2.995 3.146v.034c0 1.7 1.227 3.18 3.029 3.18 1.783 0 2.978-1.447 2.978-3.146Z" fill="#000"/></g><mask id="cena-vykon-c" style="mask-type:luminance" maskUnits="userSpaceOnUse" x="-80" y="-94" width="309" height="218"><path d="M228.248-93.763H-79.393v217.526h307.641V-93.763Z" fill="#fff"/></mask><g mask="url(#cena-vykon-c)"><path d="M138.063 9.153h3.046l4.846 6.226V9.153h3.231v11.78h-2.844l-5.048-6.463v6.462h-3.231V9.152Z" fill="#000"/></g><mask id="cena-vykon-d" style="mask-type:luminance" maskUnits="userSpaceOnUse" x="-80" y="-94" width="309" height="218"><path d="M228.248-93.763H-79.393v217.526h307.641V-93.763Z" fill="#fff"/></mask><g mask="url(#cena-vykon-d)"><path d="M0 15.076v-.034c0-3.432 2.625-6.125 6.193-6.125 2.406 0 3.954 1.01 4.998 2.44L8.732 13.26c-.672-.825-1.447-1.38-2.574-1.38-1.649 0-2.81 1.413-2.81 3.13v.033c0 1.767 1.161 3.147 2.81 3.147 1.228 0 1.952-.572 2.659-1.43l2.457 1.75c-1.11 1.531-2.609 2.659-5.2 2.659C2.71 21.168 0 18.593 0 15.076Z" fill="#000"/></g><mask id="cena-vykon-e" style="mask-type:luminance" maskUnits="userSpaceOnUse" x="-80" y="-94" width="309" height="218"><path d="M228.248-93.763H-79.393v217.526h307.641V-93.763Z" fill="#fff"/></mask><g mask="url(#cena-vykon-e)"><path d="M12.94 9.153h9.474v2.76H16.17v1.8h5.655v2.575H16.17v1.867h6.327v2.777h-9.559V9.152Z" fill="#000"/></g><mask id="cena-vykon-f" style="mask-type:luminance" maskUnits="userSpaceOnUse" x="-80" y="-94" width="309" height="218"><path d="M228.248-93.763H-79.393v217.526h307.641V-93.763Z" fill="#fff"/></mask><g mask="url(#cena-vykon-f)"><path d="M24.753 9.153H27.8l4.847 6.226V9.153h3.23v11.78h-2.843l-5.049-6.463v6.462h-3.23V9.152Z" fill="#000"/></g><mask id="cena-vykon-g" style="mask-type:luminance" maskUnits="userSpaceOnUse" x="-80" y="-94" width="309" height="218"><path d="M228.248-93.763H-79.393v217.526h307.641V-93.763Z" fill="#fff"/></mask><g mask="url(#cena-vykon-g)"><path d="M42.274 9.069h3.147l5.014 11.863h-3.5l-.841-2.12h-4.56l-.842 2.12h-3.416L42.274 9.07Zm2.86 7.202-1.312-3.332-1.33 3.332h2.643Z" fill="#000"/></g><mask id="cena-vykon-h" style="mask-type:luminance" maskUnits="userSpaceOnUse" x="-80" y="-94" width="309" height="218"><path d="M228.248-93.763H-79.393v217.526h307.641V-93.763Z" fill="#fff"/></mask><g mask="url(#cena-vykon-h)"><path d="m14.818 5.868-1.651-2.253v2.253h-.224V3.245h.228l1.644 2.221v-2.22h.223v2.622h-.22Z" fill="#B1B3B4"/></g><mask id="cena-vykon-i" style="mask-type:luminance" maskUnits="userSpaceOnUse" x="-80" y="-94" width="309" height="218"><path d="M228.248-93.763H-79.393v217.526h307.641V-93.763Z" fill="#fff"/></mask><g mask="url(#cena-vykon-i)"><path d="M15.854 5.868V3.245h1.663v.205h-1.439v.971h1.412v.205h-1.412v1.037h1.439v.205h-1.663Z" fill="#B1B3B4"/></g><mask id="cena-vykon-j" style="mask-type:luminance" maskUnits="userSpaceOnUse" x="-80" y="-94" width="309" height="218"><path d="M228.248-93.763H-79.393v217.526h307.641V-93.763Z" fill="#fff"/></mask><g mask="url(#cena-vykon-j)"><path d="m18.002 5.593.138-.174c.117.158.279.291.523.291.357 0 .581-.247.581-.6V3.245h.224v1.863c0 .547-.357.806-.794.806a.79.79 0 0 1-.672-.322Z" fill="#B1B3B4"/></g><mask id="cena-vykon-k" style="mask-type:luminance" maskUnits="userSpaceOnUse" x="-80" y="-94" width="309" height="218"><path d="M228.248-93.763H-79.393v217.526h307.641V-93.763Z" fill="#fff"/></mask><g mask="url(#cena-vykon-k)"><path d="M20.25 5.868V3.245h.227v2.418h1.27v.205H20.25Z" fill="#B1B3B4"/></g><mask id="cena-vykon-l" style="mask-type:luminance" maskUnits="userSpaceOnUse" x="-80" y="-94" width="309" height="218"><path d="M228.248-93.763H-79.393v217.526h307.641V-93.763Z" fill="#fff"/></mask><g mask="url(#cena-vykon-l)"><path d="M22.323 5.868V3.245h1.662v.205h-1.438v.971h1.41v.205h-1.41v1.037h1.438v.205h-1.662Z" fill="#B1B3B4"/></g><mask id="cena-vykon-m" style="mask-type:luminance" maskUnits="userSpaceOnUse" x="-80" y="-94" width="309" height="218"><path d="M228.248-93.763H-79.393v217.526h307.641V-93.763Z" fill="#fff"/></mask><g mask="url(#cena-vykon-m)"><path d="M24.655 5.868V3.245h.983c.503 0 .79.354.79.767 0 .413-.291.767-.79.767h-.759v1.088h-.224Zm1.537-1.856c0-.33-.228-.562-.578-.562h-.735v1.124h.735c.35 0 .578-.235.578-.562Z" fill="#B1B3B4"/></g><mask id="cena-vykon-n" style="mask-type:luminance" maskUnits="userSpaceOnUse" x="-80" y="-94" width="309" height="218"><path d="M228.248-93.763H-79.393v217.526h307.641V-93.763Z" fill="#fff"/></mask><g mask="url(#cena-vykon-n)"><path d="m26.895 5.498.146-.17c.169.193.444.382.821.382.535 0 .688-.298.688-.522 0-.771-1.572-.37-1.572-1.286 0-.429.385-.7.86-.7.39 0 .689.138.889.37l-.15.165c-.188-.228-.455-.33-.75-.33-.35 0-.613.2-.613.483 0 .673 1.572.303 1.572 1.282 0 .338-.224.743-.932.743-.432 0-.759-.177-.959-.417Zm.833-2.492-.393-.566h.157l.338.444.33-.444h.158l-.378.566h-.212Z" fill="#B1B3B4"/></g><mask id="cena-vykon-o" style="mask-type:luminance" maskUnits="userSpaceOnUse" x="-80" y="-94" width="309" height="218"><path d="M228.248-93.763H-79.393v217.526h307.641V-93.763Z" fill="#fff"/></mask><g mask="url(#cena-vykon-o)"><path d="M29.503 3.006h-.173l.606-.566h.243l-.676.566Zm-.055.24h.224v2.622h-.224V3.246Z" fill="#B1B3B4"/></g><mask id="cena-vykon-p" style="mask-type:luminance" maskUnits="userSpaceOnUse" x="-80" y="-94" width="309" height="218"><path d="M228.248-93.763H-79.393v217.526h307.641V-93.763Z" fill="#fff"/></mask><g mask="url(#cena-vykon-p)"><path d="M31.538 5.868V3.245h.983c.503 0 .79.354.79.767 0 .413-.29.767-.79.767h-.759v1.088h-.224Zm1.537-1.856c0-.33-.228-.562-.578-.562h-.735v1.124h.735c.35 0 .578-.235.578-.562Z" fill="#B1B3B4"/></g><mask id="cena-vykon-q" style="mask-type:luminance" maskUnits="userSpaceOnUse" x="-80" y="-94" width="309" height="218"><path d="M228.248-93.763H-79.393v217.526h307.641V-93.763Z" fill="#fff"/></mask><g mask="url(#cena-vykon-q)"><path d="M33.823 4.559c0-.767.503-1.356 1.273-1.356.767 0 1.274.59 1.274 1.356 0 .767-.507 1.356-1.273 1.356-.77 0-1.274-.59-1.274-1.356Zm2.311 0c0-.664-.408-1.152-1.038-1.152-.632 0-1.037.488-1.037 1.152 0 .66.405 1.151 1.038 1.151.629 0 1.037-.49 1.037-1.151Z" fill="#B1B3B4"/></g><mask id="cena-vykon-r" style="mask-type:luminance" maskUnits="userSpaceOnUse" x="-80" y="-94" width="309" height="218"><path d="M228.248-93.763H-79.393v217.526h307.641V-93.763Z" fill="#fff"/></mask><g mask="url(#cena-vykon-r)"><path d="M39.291 5.868v-2.34l-.955 2.34h-.087l-.959-2.34v2.34h-.224V3.245h.334l.893 2.183.888-2.183h.338v2.623h-.228Z" fill="#B1B3B4"/></g><mask id="cena-vykon-s" style="mask-type:luminance" maskUnits="userSpaceOnUse" x="-80" y="-94" width="309" height="218"><path d="M228.248-93.763H-79.393v217.526h307.641V-93.763Z" fill="#fff"/></mask><g mask="url(#cena-vykon-s)"><path d="M40.337 5.868V3.245h1.662v.205H40.56v.97h1.412v.205H40.56v1.038H42v.205h-1.663Zm.738-2.862-.392-.566h.157l.338.444.33-.444h.157l-.377.566h-.213Z" fill="#B1B3B4"/></g><mask id="cena-vykon-t" style="mask-type:luminance" maskUnits="userSpaceOnUse" x="-80" y="-94" width="309" height="218"><path d="M228.248-93.763H-79.393v217.526h307.641V-93.763Z" fill="#fff"/></mask><g mask="url(#cena-vykon-t)"><path d="m44.223 5.868-.735-1.085h-.578v1.085h-.224V3.245h.979c.452 0 .798.287.798.767 0 .476-.334.739-.727.754l.758 1.101h-.271Zm.004-1.856c0-.33-.232-.562-.582-.562h-.735v1.128h.735c.35 0 .582-.236.582-.566Z" fill="#B1B3B4"/></g></g></g></symbol><symbol id="check"><g fill="none"><path d="M8.6 11.8 6.45 9.65a.948.948 0 0 0-.7-.275.948.948 0 0 0-.7.275.948.948 0 0 0-.275.7c0 .283.092.517.275.7L7.9 13.9c.2.2.433.3.7.3.267 0 .5-.1.7-.3l5.65-5.65a.948.948 0 0 0 .275-.7.948.948 0 0 0-.275-.7.948.948 0 0 0-.7-.275.948.948 0 0 0-.7.275L8.6 11.8ZM10 20a9.738 9.738 0 0 1-3.9-.788 10.099 10.099 0 0 1-3.175-2.137c-.9-.9-1.612-1.958-2.137-3.175A9.738 9.738 0 0 1 0 10c0-1.383.263-2.683.787-3.9a10.099 10.099 0 0 1 2.138-3.175c.9-.9 1.958-1.612 3.175-2.137A9.738 9.738 0 0 1 10 0c1.383 0 2.683.263 3.9.787a10.098 10.098 0 0 1 3.175 2.138c.9.9 1.613 1.958 2.137 3.175A9.738 9.738 0 0 1 20 10a9.738 9.738 0 0 1-.788 3.9 10.098 10.098 0 0 1-2.137 3.175c-.9.9-1.958 1.613-3.175 2.137A9.738 9.738 0 0 1 10 20Z" fill="#505050"/></g></symbol><symbol id="discount"><g fill="none"><g clip-path="url(#discount-a)"><path fill-rule="evenodd" clip-rule="evenodd" d="M32 57.891 27.44 60.8 24 56.624l-5.238 1.357-1.981-5.034-5.402-.32-.32-5.401-5.033-1.981L7.376 40 3.2 36.56 6.109 32 3.2 27.44 7.376 24l-1.357-5.238 5.034-1.981.32-5.402 5.401-.32 1.981-5.033L24 7.376 27.44 3.2 32 6.109 36.56 3.2 40 7.376l5.238-1.357 1.981 5.034 5.402.32.32 5.401 5.033 1.981L56.624 24l4.176 3.44L57.89 32l2.909 4.56L56.624 40l1.357 5.238-5.034 1.981-.32 5.402-5.401.32-1.981 5.033L40 56.624 36.56 60.8 32 57.89ZM20.134 23.827v1.37a5.181 5.181 0 0 0 1.504 3.808 5.76 5.76 0 0 0 4.282 1.513 5.733 5.733 0 0 0 4.253-1.504 5.187 5.187 0 0 0 1.507-3.817v-1.37a5.249 5.249 0 0 0-1.494-3.84 5.758 5.758 0 0 0-4.288-1.523 5.696 5.696 0 0 0-4.253 1.523 5.247 5.247 0 0 0-1.51 3.84Zm3.84 1.37v-1.37a2.31 2.31 0 0 1 .5-1.504 1.71 1.71 0 0 1 1.404-.614 1.728 1.728 0 0 1 1.424.614c.339.427.516.96.5 1.504v1.37a2.265 2.265 0 0 1-.49 1.485 1.706 1.706 0 0 1-1.399.595 1.772 1.772 0 0 1-1.44-.595 2.24 2.24 0 0 1-.495-1.485h-.004ZM32.432 38.4v1.37a5.173 5.173 0 0 0 1.523 3.84 5.835 5.835 0 0 0 4.298 1.513 5.7 5.7 0 0 0 4.243-1.504 5.227 5.227 0 0 0 1.485-3.84V38.4a5.236 5.236 0 0 0-1.485-3.84 5.735 5.735 0 0 0-4.282-1.513 5.761 5.761 0 0 0-4.272 1.524 5.193 5.193 0 0 0-1.51 3.83Zm3.862 1.37V38.4a2.282 2.282 0 0 1 .5-1.485 1.95 1.95 0 0 1 2.838 0c.342.418.522.945.509 1.485v1.37a2.642 2.642 0 0 1-.39 1.548 1.724 1.724 0 0 1-1.495.55 1.81 1.81 0 0 1-1.389-.623 2.115 2.115 0 0 1-.573-1.472v-.003Zm-9.433 3.043L39.513 22.56l-2.793-1.405-12.653 20.256 2.794 1.402Z" fill="#84A4CF"/></g></g></symbol><symbol id="icon-login"><g fill="none"><path d="M12 11.898c-1.16 0-2.15-.41-2.972-1.231-.82-.822-1.231-1.812-1.231-2.972s.41-2.15 1.231-2.968c.822-.82 1.812-1.23 2.972-1.23s2.15.41 2.971 1.23c.822.819 1.232 1.808 1.232 2.968s-.41 2.15-1.232 2.972c-.82.82-1.811 1.231-2.971 1.231ZM3.797 18.03v-.74c0-.603.155-1.158.467-1.664a3.097 3.097 0 0 1 1.246-1.16c1.046-.52 2.11-.912 3.192-1.174a14.108 14.108 0 0 1 6.608-.003c1.082.26 2.142.65 3.18 1.171.519.266.934.652 1.246 1.157.311.505.467 1.062.467 1.673v.74c0 .63-.222 1.166-.665 1.61-.444.443-.98.665-1.61.665H6.072c-.63 0-1.167-.222-1.61-.665a2.193 2.193 0 0 1-.665-1.61Z" fill="#fff"/></g></symbol><symbol id="icon-register"><g fill="none"><g clip-path="url(#icon-register-a)"><path fill-rule="evenodd" clip-rule="evenodd" d="M14.472 14.414c1.329.017 2.65.19 3.938.518 1.395.307 2.727.852 3.939 1.609A3.078 3.078 0 0 1 24 19.186V21.6H4.8v-2.415a3.271 3.271 0 0 1 1.8-2.64 12.51 12.51 0 0 1 3.938-1.608 16.854 16.854 0 0 1 3.939-.518l-.005-.005Zm0-2.414a4.663 4.663 0 0 1-2.4-.647 4.904 4.904 0 0 1-1.752-1.739 4.574 4.574 0 0 1-.652-2.385 4.72 4.72 0 0 1 .652-2.415 4.825 4.825 0 0 1 1.752-1.767 4.79 4.79 0 0 1 4.807 0 4.825 4.825 0 0 1 1.752 1.767c.43.732.655 1.566.652 2.415a4.56 4.56 0 0 1-.652 2.385 4.898 4.898 0 0 1-1.752 1.74 4.67 4.67 0 0 1-2.4.646h-.007ZM1.2 9.6a1.2 1.2 0 0 0 0 2.4h1.2v1.2a1.2 1.2 0 0 0 2.4 0V12H6a1.2 1.2 0 1 0 0-2.4H4.8V8.4a1.2 1.2 0 0 0-2.4 0v1.2H1.2Z" fill="#fff"/></g></g></symbol><symbol id="pricemania"><g fill="none"><g clip-path="url(#pricemania-a)"><path d="M81.29 12.084a.53.53 0 0 0 .553-.707L77 .889a1.28 1.28 0 0 0-1.206-.862h-1.206a1.279 1.279 0 0 0-1.205.862l-4.838 10.488a.53.53 0 0 0 .548.707h1.863a1.182 1.182 0 0 0 .997-.792l3.254-7.254 3.257 7.254a1.179 1.179 0 0 0 .993.792h1.844-.012ZM7.195.066H.777a.773.773 0 0 0-.773.773V11.31a.804.804 0 0 0 .773.792h1.588a.772.772 0 0 0 .773-.792V9.417h4.057c3.204 0 5.082-1.445 5.082-4.683 0-3.239-1.87-4.668-5.082-4.668ZM6.23 7.06H3.161V2.446H6.23c1.654 0 2.875.344 2.875 2.319 0 1.974-1.225 2.318-2.875 2.318M25.702 4.753c0-3.238-1.878-4.683-5.082-4.683h-6.426a.773.773 0 0 0-.773.772v10.473a.804.804 0 0 0 .792.792h1.585a.773.773 0 0 0 .792-.792V9.42h3.794l1.21 1.894a1.743 1.743 0 0 0 1.294.792h2.014c.448 0 .568-.344.293-.792l-1.545-2.43-.054-.082c1.348-.703 2.094-2.033 2.094-4.07m-9.112-2.318h3.068c1.654 0 2.88.344 2.88 2.319s-1.226 2.318-2.88 2.318h-3.068V2.416ZM29.13.066h-1.57a.773.773 0 0 0-.772.773v10.51a.773.773 0 0 0 .773.773h1.568a.808.808 0 0 0 .808-.792V.858a.796.796 0 0 0-.808-.773M43.431 7.563h-1c-.484 0-.878.224-1.206.93A2.133 2.133 0 0 1 39.16 9.82h-1.673c-2.481 0-3.153-.916-3.153-3.721 0-2.806.672-3.721 3.153-3.721h1.5a2.133 2.133 0 0 1 2.067 1.325c.328.707.722.928 1.205.928h.997a.874.874 0 0 0 .866-.928c0-2.446-2.5-3.702-4.842-3.702h-1.878c-4.12-.012-6.249 1.92-6.249 6.098 0 4.177 2.118 6.098 6.237 6.098h2.048c2.342 0 4.839-1.256 4.839-3.706a.87.87 0 0 0-.858-.931M55.925.066h-9.7a.773.773 0 0 0-.773.773v10.476a.793.793 0 0 0 .773.811h9.661a.776.776 0 0 0 .792-.792v-.808a.773.773 0 0 0-.773-.772h-7.303V7.273h6.306a.8.8 0 0 0 .793-.793v-.792a.8.8 0 0 0-.793-.773h-6.302V2.47h7.319a.773.773 0 0 0 .792-.792V.885a.774.774 0 0 0-.792-.773M109.666 11.334V.862a.775.775 0 0 0-.792-.773h-1.446a.77.77 0 0 0-.731.472.775.775 0 0 0-.061.3V8.7L101.555.877a1.65 1.65 0 0 0-1.16-.773h-2.48a.773.773 0 0 0-.773.773V11.35a.8.8 0 0 0 .792.792h1.48a.804.804 0 0 0 .792-.792V4.115l4.637 7.22a1.64 1.64 0 0 0 1.221.791h2.79a.78.78 0 0 0 .566-.226.763.763 0 0 0 .227-.566M112.375 12.126h1.565a.807.807 0 0 0 .811-.792V.862a.79.79 0 0 0-.503-.737.795.795 0 0 0-.308-.055h-1.565a.791.791 0 0 0-.792.792V11.35a.756.756 0 0 0 .233.553.763.763 0 0 0 .559.22M95.84 12.126a.53.53 0 0 0 .552-.707L91.554.927a1.283 1.283 0 0 0-1.21-.861H89.14a1.28 1.28 0 0 0-1.206.861l-4.838 10.488a.53.53 0 0 0 .552.707h1.844a1.178 1.178 0 0 0 .997-.792l.521-1.16h5.472l.522 1.16a1.187 1.187 0 0 0 1 .792h1.844l-.008.004Zm-7.946-3.934 1.847-4.111 1.848 4.111h-3.695ZM129.957 11.42 125.115.93a1.278 1.278 0 0 0-1.217-.866h-1.205a1.282 1.282 0 0 0-1.206.862l-4.838 10.488a.53.53 0 0 0 .552.707h1.844a1.18 1.18 0 0 0 1-.792l.522-1.16h5.472l.522 1.16a1.184 1.184 0 0 0 .997.792h1.843a.53.53 0 0 0 .553-.707m-8.502-3.226 1.847-4.112 1.847 4.112h-3.694Z" fill="#405C6A"/><path d="M68.445 4.78s.66 1.33 1.306 2.829L66.66.885a1.28 1.28 0 0 0-1.206-.862h-1.206a1.279 1.279 0 0 0-1.205.862l-4.838 10.492a.53.53 0 0 0 .552.707H60.6a1.18 1.18 0 0 0 .997-.792l3.258-7.254 3.258 7.254a1.178 1.178 0 0 0 1 .792h1.844s.696.062.7-.483c.003-.545-3.193-6.82-3.193-6.82" fill="#F6921E"/></g></g></symbol><symbol id="tools"><g fill="none"><path fill-rule="evenodd" clip-rule="evenodd" d="M54.4 16H48a3.2 3.2 0 0 0-3.2 3.2v35.229a3.2 3.2 0 0 0 3.2 3.2h6.4a3.2 3.2 0 0 0 3.2-3.2V19.2a3.2 3.2 0 0 0-3.2-3.2Zm-16 12.8H32a3.2 3.2 0 0 0-3.2 3.2v22.4a3.2 3.2 0 0 0 3.2 3.2h6.4a3.2 3.2 0 0 0 3.2-3.2V32a3.2 3.2 0 0 0-3.2-3.2ZM22.368 41.62h-6.4a3.2 3.2 0 0 0-3.2 3.2v9.6a3.2 3.2 0 0 0 3.2 3.2h6.4a3.2 3.2 0 0 0 3.2-3.2v-9.6a3.2 3.2 0 0 0-3.19-3.198l-.01-.003ZM35.4 21V5h-16l6.4 6.4L13 24.2l3.2 3.2L29 14.6l6.4 6.4Z" fill="#84A4CF"/></g></symbol><symbol id="usp-1"><g fill="none"><g clip-path="url(#usp-1-a)" stroke="#C3E1FA" stroke-width="2" stroke-linecap="round" stroke-linejoin="round"><path d="M6.16 15.943h5.334l6.892 32.786H54.95l2.888-26.785H12.776M18.398 48.729v6.205h36.061M18.398 60.892a2.979 2.979 0 1 0 0-5.958 2.979 2.979 0 0 0 0 5.958Z"/><path d="M57.439 57.913a2.98 2.98 0 1 1-5.959 0 2.98 2.98 0 0 1 5.959 0Z"/></g><path d="M36.5 44a8.5 8.5 0 1 0 0-17 8.5 8.5 0 0 0 0 17Z" stroke="#C3E1FA" stroke-width="2" stroke-miterlimit="10"/><path d="M32 36.111 35.643 40 41 32" stroke="#C3E1FA" stroke-width="2" stroke-linecap="round" stroke-linejoin="round"/></g></symbol><symbol id="usp-2"><g fill="none"><g clip-path="url(#usp-2-a)" stroke="#C3E1FA" stroke-width="2" stroke-linejoin="round"><path d="m41.817 24.675-1.757 6.174M34.313 44.079l15.838 4.662a2.093 2.093 0 0 0 2.717-1.513l9.542-33.541a2.206 2.206 0 0 0-1.512-2.711l-20.666-5.87a2.1 2.1 0 0 0-2.713 1.514l-8.6 30.477"/><path d="M23.029 55.26c.762 2.95 4.5 3.52 6.272 2.819l1.084-4.726a6.5 6.5 0 0 0 4.015.549l.907-9.53"/><path d="M31.623 27.53c-.946.51-6.261 3.27-6.261 3.27l-.211 9.443 11.056-9.215c1.5-1.152 3.54-1.064 5.414 1.1 1.66 1.91 1.6 4.278.012 5.723l-11.03 9.392-8.447 9a8.354 8.354 0 0 1-6.322 2.762H1.508M34.63 16.864l-16.486 7.973-11.9 15.973-4.738 1.744M49.292 26.912 45.445 40.43"/><path d="m43.178 11.757-2.323 8.38 8.38 2.324 2.324-8.38-8.38-2.324ZM46.182 17.204l.05-.191" stroke-linecap="round"/></g></g></symbol><symbol id="usp-3"><g fill="none"><g clip-path="url(#usp-3-a)" stroke="#C3E1FA" stroke-width="2" stroke-linejoin="round"><path d="m31.3 46.953-3.385 1.881A1.3 1.3 0 0 1 26 47.481l.681-4.2a1.437 1.437 0 0 0-.389-1.234l-2.923-3.009a1.307 1.307 0 0 1 .74-2.205l3.91-.6a1.44 1.44 0 0 0 1.085-.814l1.715-3.668a1.3 1.3 0 0 1 2.352 0l1.716 3.668a1.437 1.437 0 0 0 1.086.814l3.916.6a1.305 1.305 0 0 1 .737 2.2l-2.928 3.013a1.438 1.438 0 0 0-.389 1.234l.681 4.2a1.301 1.301 0 0 1-1.91 1.353l-3.386-1.881a1.442 1.442 0 0 0-1.394.001Z"/><path d="M32 57c9.389 0 17-7.611 17-17s-7.611-17-17-17-17 7.611-17 17 7.611 17 17 17Z" stroke-linecap="round"/><path d="M37.455 23.911 29 7H15l9 18M40 25l9-18H35l-3 6"/><path d="m11.545 32.5-3.464-2M9 40H5M8.081 49.5l3.464-2M52.454 32.5l3.464-2M55 40h4M55.918 49.5l-3.464-2" stroke-linecap="round"/></g></g></symbol><symbol id="usp-4"><g fill="none"><g clip-path="url(#usp-4-a)" stroke="#C3E1FA" stroke-width="2"><path d="M33.323 5.099a2.435 2.435 0 1 1-4.87.002 2.435 2.435 0 0 1 4.87-.002ZM26.039 47.748a2.226 2.226 0 1 1-4.452-.002 2.226 2.226 0 0 1 4.452.002ZM18.144 18.612a2.226 2.226 0 1 1-4.452 0 2.226 2.226 0 0 1 4.452 0ZM8.901 8.104a2.227 2.227 0 1 1-4.454 0 2.227 2.227 0 0 1 4.454 0ZM51.87 11.556a2.434 2.434 0 1 1-4.868-.002 2.434 2.434 0 0 1 4.868.002ZM48.829 36.226a2.748 2.748 0 1 1-5.497 0 2.748 2.748 0 0 1 5.497 0ZM9.942 31.88a2.747 2.747 0 1 1-5.494-.002 2.747 2.747 0 0 1 5.494.002ZM36.803 26.69a4.106 4.106 0 1 1-8.212-.003 4.106 4.106 0 0 1 8.212.004Z" stroke-linejoin="round"/><path d="m8.143 9.772 6.31 7.174M8.882 7.83 28.474 5.4M47.138 10.756l-13.945-4.88M49.108 13.967l-2.657 19.536M36.042 29.076l7.805 5.55M24.68 45.696 31.1 30.48M28.673 27.513 9.888 31.332M8.705 29.584l5.99-9.112M17.568 17.123 29.083 6.729M31.091 7.535l1.263 15.068M9.181 33.776 22.205 46.21M34.16 34.126v23.38a3.309 3.309 0 0 0 2.76 3.322c3.544.338 6.927.5 10.347.5a80.812 80.812 0 0 0 8.948-.43c1.6-.242 3.337-1.334 3.337-2.907V21.88a3.174 3.174 0 0 0-2.987-3.37c-3.543-.334-6.673-.5-9.815-.5-3.142 0-6.284.17-9.862.509a2.985 2.985 0 0 0-1.769.922" stroke-miterlimit="10"/><path d="M43.732 57.306h6.02" stroke-miterlimit="10" stroke-linecap="round"/><path d="M34.16 53.687h25.163M39.417 24.587h19.906" stroke-miterlimit="10"/></g></g></symbol><symbol id="usp-5"><g fill="none"><g clip-path="url(#usp-5-a)" stroke="#C3E1FA" stroke-width="2" stroke-linejoin="round"><path d="M39.391 42.168a7.39 7.39 0 1 0-14.78 0 7.39 7.39 0 0 0 14.78 0ZM43.704 60.88c0-3.283-2.172-6.57-6.766-7.94L32 56.373l-4.934-3.43c-4.59 1.369-6.768 4.656-6.768 7.938M10.44 20.903a5.14 5.14 0 1 0-.001-10.28 5.14 5.14 0 0 0 .001 10.28ZM18.778 29.562c0-2.341-1.547-4.683-4.823-5.658l-3.518 2.444-3.517-2.443c-3.271.976-4.824 3.315-4.824 5.657M32 13.403a5.14 5.14 0 1 0 0-10.281 5.14 5.14 0 0 0 0 10.28ZM40.34 22.063c0-2.341-1.546-4.683-4.822-5.658l-3.52 2.444-3.515-2.443c-3.272.976-4.824 3.316-4.824 5.657M53.562 20.903a5.141 5.141 0 1 0 0-10.283 5.141 5.141 0 0 0 0 10.283ZM61.902 29.562c0-2.341-1.548-4.683-4.824-5.658l-3.519 2.444-3.515-2.443c-3.272.976-4.824 3.315-4.824 5.657M31.999 25.589v5.275M14.898 34.92l3.776 3.682M49.103 34.92l-3.775 3.682"/></g></g></symbol></svg>