<svg width="218" height="27" viewBox="0 0 218 27" fill="none" xmlns="http://www.w3.org/2000/svg">
<path fill-rule="evenodd" clip-rule="evenodd" d="M65.0779 26.5869H57.9723V25.6988C57.9723 25.0522 58.0521 24.3263 58.1319 23.4388C56.6176 25.7793 54.6187 26.9901 52.063 26.9901C51.3037 27.0358 50.5432 26.9232 49.8289 26.6593C49.1145 26.3955 48.4617 25.9861 47.9109 25.4566C47.4093 24.9497 47.016 24.3443 46.7556 23.6778C46.4951 23.0113 46.3729 22.298 46.3966 21.582C46.3939 20.4341 46.7272 19.3109 47.3547 18.3534C47.9739 17.3774 48.8247 16.5729 49.83 16.0129C50.8475 15.446 51.9555 15.0634 53.1038 14.8826C54.2217 14.7211 56.3777 14.479 59.5717 14.1561C59.7119 13.795 59.7928 13.4132 59.8111 13.0258C59.8111 11.9766 59.1704 11.4923 57.7347 11.4923C56.3771 11.4923 55.3392 12.2188 54.6205 13.5907L48.7118 12.2976C50.3088 8.74625 53.6624 7.05111 58.7732 7.05111C61.3283 7.05111 63.4046 7.53544 64.8421 8.42356C65.5266 8.85905 66.086 9.46824 66.4641 10.1903C66.8423 10.9123 67.0261 11.7218 66.997 12.538C66.997 13.345 66.4379 16.2509 65.4827 21.1747C65.1909 22.3666 65.0038 23.5821 64.9236 24.8071C64.9352 25.4032 64.9868 25.9978 65.0779 26.5869ZM53.8191 20.9366C53.8191 21.9858 54.2984 22.5507 55.4161 22.5507C56.2056 22.508 56.9488 22.1613 57.4924 21.582C58.2111 20.8555 58.6101 19.5642 58.8501 17.6269C55.5757 17.8696 53.8988 18.9993 53.8191 20.9366ZM45.6744 21.8248L44.7961 26.5857H28.5051L29.3036 22.3079L38.5642 12.2182H31.7801L32.6584 7.61714H48.3076L47.5888 11.2496L37.8489 21.8248H45.6744ZM31.7003 1L26.9908 26.6674H20.0418L24.7531 1H31.7003ZM18.6842 26.5869H11.5786V25.6988C11.5786 25.0522 11.6584 24.3263 11.7382 23.4388C10.2239 25.7793 8.225 26.9901 5.66931 26.9901C4.90999 27.0358 4.14948 26.9232 3.43515 26.6593C2.72081 26.3955 2.06794 25.9861 1.5172 25.4566C1.01555 24.9497 0.622318 24.3443 0.361846 23.6778C0.101375 23.0113 -0.020798 22.298 0.00288908 21.582C-0.00108097 20.4347 0.330584 19.3118 0.956319 18.354C1.57549 17.378 2.42633 16.5735 3.43163 16.0135C4.44909 15.4466 5.55713 15.064 6.70545 14.8832C7.82332 14.7217 9.97926 14.4796 13.1733 14.1567C13.3135 13.7956 13.3944 13.4138 13.4127 13.0264C13.4127 11.9772 12.772 11.4929 11.3363 11.4929C9.97868 11.4929 8.9408 12.2194 8.22208 13.5913L2.31279 12.2982C3.9098 8.74684 7.26341 7.0517 12.3742 7.0517C14.9293 7.0517 17.0057 7.53603 18.4431 8.42415C19.1277 8.85963 19.687 9.46883 20.0652 10.1908C20.4433 10.9129 20.6271 11.7224 20.5981 12.5386C20.5981 13.3456 20.0389 16.2515 19.0837 21.1753C18.792 22.3671 18.6049 23.5827 18.5246 24.8077C18.538 25.4037 18.5913 25.9981 18.6842 26.5869ZM12.4557 17.6281C9.18192 17.8702 7.50512 19.0005 7.42533 20.9372C7.42533 21.9864 7.90466 22.5512 9.02234 22.5512C9.81176 22.5083 10.5549 22.1617 11.0987 21.5826C11.8174 20.8561 12.2164 19.5648 12.4557 17.6281Z" fill="white"/>
<path d="M92.5921 26.4433H85.1864C85.1489 26.0845 85.1302 25.7938 85.1302 25.5711C85.1302 24.9402 85.174 24.1979 85.2614 23.3443C83.7741 25.6948 81.6992 26.8701 79.037 26.8701C77.2371 26.8701 75.781 26.3567 74.6686 25.3299C73.5562 24.3031 73 23.0165 73 21.4701C73 20.3196 73.3 19.268 73.8999 18.3155C74.4999 17.3505 75.3498 16.5835 76.4497 16.0144C77.5496 15.4454 78.6745 15.0742 79.8244 14.901C80.9743 14.7155 83.2241 14.468 86.5738 14.1588C86.7238 13.701 86.7988 13.3423 86.7988 13.0825C86.7988 12.0557 86.0739 11.5423 84.624 11.5423C83.1991 11.5423 82.1492 12.2412 81.4743 13.6392L75.3061 12.3959C76.8684 8.91959 80.3056 7.18144 85.6177 7.18144C88.3049 7.18144 90.4172 7.64536 91.9546 8.5732C93.492 9.48866 94.2607 10.8433 94.2607 12.6371C94.2607 13.4412 93.8107 16.2866 92.9108 21.1732C92.5733 22.9918 92.4046 24.1979 92.4046 24.7918C92.4046 25.2742 92.4671 25.8247 92.5921 26.4433ZM85.9176 17.5361C82.4804 17.7959 80.7618 18.8845 80.7618 20.8021C80.7618 21.8536 81.318 22.3794 82.4304 22.3794C83.1429 22.3794 83.8553 22.0639 84.5678 21.433C85.2802 20.8021 85.7301 19.5031 85.9176 17.5361Z" fill="white"/>
<path d="M111.809 7.70103L110.984 12.4887H106.278L103.916 26.4433H96.9604L99.3227 12.4887H96.248L97.0542 7.70103H100.129C100.466 5.49897 100.941 3.94021 101.554 3.02474C102.179 2.09691 103.097 1.36082 104.31 0.816495C105.522 0.272165 107.053 0 108.903 0C110.528 0 112.015 0.16701 113.365 0.501031L112.615 5.01031C111.64 4.87423 110.872 4.80619 110.309 4.80619C109.047 4.80619 108.197 5.03505 107.76 5.49278C107.335 5.93814 107.11 6.67423 107.085 7.70103H111.809Z" fill="white"/>
<path d="M127.558 7.70103L126.733 12.4887H122.027L119.665 26.4433H112.709L115.071 12.4887H111.997L112.803 7.70103H115.878C116.215 5.49897 116.69 3.94021 117.302 3.02474C117.927 2.09691 118.846 1.36082 120.058 0.816495C121.271 0.272165 122.802 0 124.652 0C126.277 0 127.764 0.16701 129.114 0.501031L128.364 5.01031C127.389 4.87423 126.62 4.80619 126.058 4.80619C124.796 4.80619 123.946 5.03505 123.508 5.49278C123.083 5.93814 122.858 6.67423 122.833 7.70103H127.558Z" fill="white"/>
<path d="M138.301 0.519588L137.363 6.03093H130.014L130.951 0.519588H138.301ZM137.082 7.70103L133.913 26.4433H126.564L129.733 7.70103H137.082Z" fill="white"/>
<path d="M149.325 1.1134L145.05 26.4433H137.851L142.125 1.1134H149.325Z" fill="white"/>
<path d="M160.724 0.519588L159.786 6.03093H152.437L153.374 0.519588H160.724ZM159.505 7.70103L156.337 26.4433H148.987L152.156 7.70103H159.505Z" fill="white"/>
<path d="M179.697 26.4433H172.291C172.254 26.0845 172.235 25.7938 172.235 25.5711C172.235 24.9402 172.279 24.1979 172.366 23.3443C170.879 25.6948 168.804 26.8701 166.142 26.8701C164.342 26.8701 162.886 26.3567 161.774 25.3299C160.661 24.3031 160.105 23.0165 160.105 21.4701C160.105 20.3196 160.405 19.268 161.005 18.3155C161.605 17.3505 162.455 16.5835 163.555 16.0144C164.655 15.4454 165.779 15.0742 166.929 14.901C168.079 14.7155 170.329 14.468 173.679 14.1588C173.829 13.701 173.904 13.3423 173.904 13.0825C173.904 12.0557 173.179 11.5423 171.729 11.5423C170.304 11.5423 169.254 12.2412 168.579 13.6392L162.411 12.3959C163.973 8.91959 167.411 7.18144 172.723 7.18144C175.41 7.18144 177.522 7.64536 179.06 8.5732C180.597 9.48866 181.366 10.8433 181.366 12.6371C181.366 13.4412 180.916 16.2866 180.016 21.1732C179.678 22.9918 179.51 24.1979 179.51 24.7918C179.51 25.2742 179.572 25.8247 179.697 26.4433ZM173.023 17.5361C169.585 17.7959 167.867 18.8845 167.867 20.8021C167.867 21.8536 168.423 22.3794 169.535 22.3794C170.248 22.3794 170.96 22.0639 171.673 21.433C172.385 20.8021 172.835 19.5031 173.023 17.5361Z" fill="white"/>
<path d="M197.264 7.70103L196.439 12.4887H193.008L191.883 19.1691C191.771 19.8247 191.715 20.2392 191.715 20.4124C191.715 21.3278 192.302 21.7856 193.477 21.7856C193.99 21.7856 194.583 21.7113 195.258 21.5629L194.433 26.4433C193.083 26.7278 191.79 26.8701 190.552 26.8701C189.015 26.8701 187.871 26.6783 187.121 26.2948C186.384 25.9113 185.778 25.367 185.303 24.6619C184.84 23.9567 184.609 23.0289 184.609 21.8783C184.609 21.3959 184.722 20.4928 184.947 19.1691L186.072 12.4887H183.465L184.272 7.70103H186.896L187.928 2.15258L194.79 2.02268L193.833 7.70103H197.264Z" fill="white"/>
<path d="M217.794 18.4639H204.745C204.682 18.9711 204.651 19.3485 204.651 19.5959C204.651 20.4124 204.914 21.0495 205.439 21.5072C205.976 21.9649 206.651 22.1938 207.463 22.1938C209.001 22.1938 210.088 21.4082 210.726 19.8371L217.1 20.8577C216.275 22.6887 214.938 24.1732 213.088 25.3113C211.251 26.4371 209.207 27 206.957 27C204.132 27 201.839 26.2082 200.077 24.6247C198.327 23.0289 197.452 20.8577 197.452 18.1113C197.452 15.1299 198.489 12.5753 200.564 10.4474C202.639 8.30722 205.351 7.23711 208.701 7.23711C211.538 7.23711 213.794 8.06598 215.469 9.72371C217.156 11.3814 218 13.5835 218 16.3299C218 16.9485 217.931 17.6598 217.794 18.4639ZM210.969 14.8454C211.032 14.4619 211.063 14.1649 211.063 13.9546C211.063 13.2866 210.851 12.7052 210.426 12.2103C210.013 11.7155 209.432 11.468 208.682 11.468C207.882 11.468 207.157 11.7711 206.507 12.3773C205.857 12.9711 205.457 13.7938 205.307 14.8454H210.969Z" fill="white"/>
</svg>
