<svg width="134" height="37" viewBox="0 0 134 37" fill="none" xmlns="http://www.w3.org/2000/svg">
<g clip-path="url(#clip0_555_945)">
<path fill-rule="evenodd" clip-rule="evenodd" d="M102.527 25.6064L103.309 21.5063H107.817L107.066 25.6064H102.527ZM120.332 25.7422L120.794 23.244L127.067 17.1072H122.413L122.933 14.3106H133.021L132.587 16.727L126.2 22.9169H131.605L131.084 25.7408L120.332 25.7422ZM116.716 21.126L120.792 21.1533C120.734 21.3432 120.645 21.8593 120.59 22.0492C120.082 23.2357 119.205 24.2487 118.075 24.9544C116.81 25.6668 115.356 26.0246 113.884 25.9861C112.594 26.0002 111.345 25.5548 110.386 24.7387C109.871 24.2969 109.462 23.7554 109.188 23.151C108.913 22.5466 108.78 21.8934 108.797 21.236V20.8557C108.807 20.6526 108.846 20.4517 108.912 20.2583L108.941 20.1497C109.236 18.4048 110.178 16.8161 111.6 15.668C112.806 14.6869 114.344 14.1474 115.936 14.1475C117.289 14.0772 118.627 14.4514 119.722 15.2064C120.148 15.533 120.5 15.9366 120.758 16.3936C121.016 16.8505 121.175 17.3515 121.225 17.8673C121.254 18.139 121.254 18.7364 121.254 19.0349H116.89L116.918 18.546C116.928 18.2002 116.827 17.8596 116.629 17.5684C116.535 17.4516 116.412 17.3583 116.271 17.2968C116.13 17.2353 115.975 17.2073 115.82 17.2154C115.597 17.2271 115.382 17.2933 115.194 17.4075C115.007 17.5217 114.854 17.68 114.751 17.8668C114.289 18.5307 113.983 19.2808 113.855 20.0661C113.782 20.4516 113.744 20.8421 113.74 21.2337C113.721 21.684 113.82 22.1318 114.029 22.5371C114.11 22.6654 114.225 22.7724 114.361 22.8483C114.498 22.9242 114.653 22.9665 114.811 22.9714C115.261 22.9457 115.683 22.7615 115.996 22.4553C116.374 22.0918 116.625 21.6281 116.716 21.126ZM100.476 25.8891H94.554V25.1961C94.554 24.6924 94.6205 24.1255 94.687 23.4329C93.4226 25.2594 91.7591 26.2051 89.6292 26.2051C88.9963 26.2407 88.3625 26.1528 87.7672 25.947C87.1719 25.7411 86.6278 25.4216 86.1687 25.0085C85.7503 24.6132 85.4221 24.141 85.2046 23.6211C84.9871 23.1012 84.8849 22.5446 84.9043 21.9859C84.902 21.0902 85.1798 20.2139 85.7027 19.4669C86.2188 18.7053 86.9279 18.0775 87.7657 17.6404C88.6137 17.1982 89.5372 16.8999 90.4941 16.7589C91.4258 16.6329 93.2226 16.4439 95.8845 16.192C96.0013 15.9103 96.0687 15.6126 96.084 15.3104C96.084 14.4917 95.5515 14.1137 94.3536 14.1137C93.2221 14.1137 92.3571 14.6806 91.7581 15.7512L86.8337 14.7435C88.1647 11.9713 90.9596 10.6499 95.219 10.6499C97.3485 10.6499 99.0789 11.0278 100.277 11.7204C100.848 12.0601 101.314 12.5356 101.63 13.0992C101.945 13.6628 102.098 14.2949 102.074 14.932C102.074 15.5617 101.608 17.8289 100.809 21.6703C100.566 22.6002 100.41 23.5486 100.343 24.5044C100.355 24.9683 100.399 25.4309 100.476 25.8891ZM91.0946 21.4809C91.0667 21.6521 91.0819 21.8272 91.1389 21.9919C91.1959 22.1566 91.2931 22.3063 91.4227 22.4289C91.5523 22.5516 91.7106 22.6436 91.8848 22.6977C92.059 22.7518 92.2443 22.7664 92.4256 22.7404C93.0835 22.7068 93.7028 22.4363 94.156 21.9845C94.755 21.4176 95.0875 20.4099 95.2875 18.8986C92.5576 19.088 91.1596 19.9695 91.0946 21.4809ZM84.3067 22.1739L83.5733 25.8896H69.9976L70.6631 22.5518L78.3814 14.6797H72.726L73.4595 11.0902H86.5027L85.9037 13.9243L77.7869 22.1739H84.3067ZM72.6605 5.92604L68.7341 25.9524H62.9433L66.8697 5.92604H72.6605ZM61.8123 25.8891H55.889V25.1961C55.889 24.6924 55.9555 24.1255 56.022 23.4329C54.7575 25.2594 53.094 26.2051 50.9641 26.2051C50.3312 26.2407 49.6974 26.1528 49.1021 25.947C48.5068 25.7411 47.9627 25.4216 47.5037 25.0085C47.0852 24.6132 46.7571 24.141 46.5396 23.6211C46.3221 23.1012 46.2198 22.5446 46.2392 21.9859C46.2369 21.0896 46.5151 20.2128 47.0386 19.4655C47.5547 18.7039 48.2638 18.0761 49.1016 17.639C49.9498 17.197 50.8734 16.8988 51.8305 16.758C52.7622 16.632 54.559 16.443 57.2209 16.191C57.3377 15.9094 57.4051 15.6116 57.4204 15.3095C57.4204 14.4908 56.8879 14.1128 55.6899 14.1128C54.5585 14.1128 53.6935 14.6797 53.0945 15.7503L48.1696 14.7426C49.5006 11.9704 52.2955 10.6489 56.5549 10.6489C58.6844 10.6489 60.4148 11.0269 61.6128 11.7195C62.1837 12.0592 62.6503 12.5347 62.9656 13.0983C63.281 13.6619 63.4341 14.2939 63.4098 14.9311C63.4098 15.5608 62.9438 17.828 62.1453 21.6694C61.9021 22.5993 61.7462 23.5477 61.6793 24.5035C61.6906 24.9677 61.735 25.4306 61.8123 25.8891ZM56.6224 18.8972C53.894 19.0861 52.4965 19.9677 52.43 21.479C52.4021 21.6503 52.4173 21.8253 52.4743 21.99C52.5313 22.1548 52.6285 22.3045 52.7581 22.4271C52.8877 22.5497 53.046 22.6418 53.2202 22.6959C53.3944 22.75 53.5797 22.7646 53.761 22.7385C54.4189 22.705 55.0382 22.4345 55.4914 21.9826C56.0889 21.418 56.4219 20.4103 56.6224 18.8972ZM4.26868 10.1093L3.2487 5.86782L30.8328 0L37.0916 25.9293L32.8156 26.84L33.8424 31.0976L6.2622 36.9627L0 11.0167L4.26868 10.1093ZM29.5825 28.5343C29.45 27.7784 29.384 27.1482 29.2515 26.645C29.375 25.1856 29.596 23.735 29.9131 22.3019C30.9722 16.4452 31.5677 13.0446 31.5677 12.0997C31.6104 11.1222 31.3675 10.1523 30.8655 9.29659C30.3635 8.44084 29.6219 7.73221 28.7219 7.24838C26.8027 6.17785 24.1555 5.61093 20.8466 5.61093C14.2945 5.61093 9.99156 7.69008 8.07383 11.8456L15.7506 13.3569C16.6107 11.6566 17.8683 10.8379 19.655 10.8379C21.4417 10.8379 22.3683 11.4677 22.3683 12.6643C22.3527 13.0949 22.2634 13.5203 22.1038 13.9238C18.0008 14.3018 15.155 14.6169 13.7649 14.8054C12.305 15.0163 10.8945 15.4636 9.59549 16.1277C8.27773 16.716 7.17236 17.6578 6.41721 18.8357C5.67755 19.9718 5.28807 21.2804 5.29258 22.6142C5.26407 23.4751 5.43283 24.3316 5.7873 25.1251C6.14176 25.9186 6.67355 26.6303 7.34624 27.2115C8.83851 28.4588 10.783 29.1131 12.7738 29.0379C16.0826 29.0379 18.6639 27.6518 20.5166 24.8186C20.4506 25.8263 20.3841 26.7078 20.3841 27.4637C20.3767 27.8216 20.3988 28.1796 20.4501 28.5343H29.5825ZM14.8905 21.796C14.8905 19.5288 17.0742 18.2064 21.3102 17.8913C21.1116 20.2214 20.5161 21.796 19.5895 22.5514C18.8901 23.2313 17.9444 23.6362 16.9422 23.6848C15.5521 23.6852 14.8905 23.0555 14.8905 21.796Z" fill="white"/>
</g>
<defs>
<clipPath id="clip0_555_945">
<rect width="134" height="36.7982" fill="white"/>
</clipPath>
</defs>
</svg>
