<svg width="64" height="64" viewBox="0 0 64 64" fill="none" xmlns="http://www.w3.org/2000/svg">
<path fill-rule="evenodd" clip-rule="evenodd" d="M36.7424 24.5536L34.56 15.04H54.3647L59.84 24.5536H36.7424ZM37.3984 27.408H56.1824V48.6656C56.1901 49.075 56.035 49.4707 55.7512 49.7659C55.4675 50.0611 55.0781 50.2316 54.6688 50.24H16.5536C16.1442 50.2316 15.7549 50.0611 15.4711 49.7659C15.1873 49.4707 15.0322 49.075 15.04 48.6656V44.6688L36.1248 39.3408L35.0272 35.088L38.9248 34.0448L37.3984 27.408ZM50.6976 38.8256H40.6399V50.24H50.6976V38.8256ZM6.79035 18.7008L5.93275 14.8832L29.1199 9.59998L34.3871 32.96L30.7903 33.7792L31.6544 37.6192L8.46715 42.88L3.19995 19.52L6.79035 18.7008ZM28.0832 35.2896C27.9712 34.608 27.9168 34.0416 27.8048 33.5872C27.9086 32.2723 28.0946 30.9652 28.3616 29.6736C29.2512 24.4 29.7535 21.3536 29.7535 20.4896C29.7918 19.6127 29.5888 18.7422 29.1668 17.9726C28.7448 17.2031 28.1198 16.564 27.36 16.1248C25.3225 15.0525 23.0359 14.5433 20.736 14.6496C15.2256 14.6496 11.6064 16.5216 9.99355 20.2624L16.4512 21.6224C16.6938 20.9493 17.1407 20.3688 17.7293 19.962C18.3179 19.5552 19.0189 19.3425 19.7344 19.3536C21.2383 19.3536 22.016 19.92 22.016 20.9984C22.0022 21.3855 21.9266 21.768 21.792 22.1312C18.3392 22.4704 15.9456 22.7552 14.7776 22.9248C13.5439 23.1136 12.3526 23.5164 11.2576 24.1152C10.1467 24.6479 9.21741 25.496 8.58555 26.5536C7.95792 27.5772 7.62567 28.7545 7.62555 29.9552C7.60072 30.728 7.74182 31.4972 8.03935 32.211C8.33688 32.9247 8.78392 33.5664 9.35035 34.0928C10.5997 35.2135 12.2365 35.8035 13.9136 35.7376C15.243 35.763 16.5539 35.4221 17.7025 34.7521C18.8512 34.0821 19.7932 33.109 20.4256 31.9392C20.3712 32.848 20.3136 33.6416 20.3136 34.32C20.3072 34.6409 20.3254 34.9618 20.368 35.28L28.0832 35.2896ZM15.7248 29.2096C15.7248 27.168 17.5616 25.9776 21.1232 25.6896C21.1675 27.2174 20.6532 28.7089 19.6768 29.8848C19.088 30.4988 18.2864 30.8641 17.4368 30.9056C17.207 30.9389 16.9726 30.9188 16.7519 30.8467C16.5312 30.7745 16.3302 30.6524 16.1645 30.4898C15.9988 30.3272 15.8729 30.1285 15.7966 29.9092C15.7203 29.6899 15.6957 29.4559 15.7248 29.2256V29.2096Z" fill="#84A4CF"/>
</svg>
