<svg width="64" height="64" viewBox="0 0 64 64" fill="none" xmlns="http://www.w3.org/2000/svg">
<g clip-path="url(#clip0_3_716)">
<path d="M19.127 14.546C17.827 10.646 12.922 9.78705 11.527 10.616C9.93297 11.565 13.466 17.616 9.66996 28.833C8.09896 33.457 6.64097 37.972 6.34597 41.807C5.20797 56.607 19.417 64.097 28.816 60.114L42.637 54.164" stroke="#C3E1FA" stroke-width="2" stroke-miterlimit="10"/>
<path d="M49.0569 27.127V7.37302C49.0726 6.43099 48.7503 5.51452 48.1484 4.7897C47.5465 4.06488 46.7048 3.57967 45.7759 3.42202C41.5609 3.02202 37.8379 2.82202 34.1009 2.82202C30.3639 2.82202 26.6269 3.02202 22.3699 3.42702C21.4483 3.59068 20.6154 4.07781 20.0209 4.8008C19.4264 5.52378 19.1094 6.43517 19.1269 7.37102V49.813C19.1104 50.7551 19.4325 51.6719 20.0346 52.3967C20.6366 53.1216 21.4788 53.6064 22.4079 53.763C26.6249 54.163 30.6479 54.363 34.7159 54.363C38.2706 54.3899 41.8241 54.2193 45.3599 53.852C47.2599 53.563 49.3279 52.266 49.3279 50.394" stroke="#C3E1FA" stroke-width="2" stroke-miterlimit="10"/>
<path d="M55.36 36.5201C55.1213 35.9105 54.7031 35.3877 54.1608 35.0209C53.6185 34.6542 52.9777 34.4607 52.323 34.4661C51.9029 34.464 51.4869 34.5474 51.1 34.7111L47.595 36.2431C46.7896 36.6063 46.1568 37.2682 45.8301 38.0891C45.5034 38.91 45.5084 39.8257 45.844 40.6431C46.0834 41.2519 46.5017 41.7739 47.0436 42.1404C47.5856 42.5069 48.2258 42.7006 48.88 42.6961C49.3009 42.6977 49.7177 42.6137 50.105 42.449L53.605 40.9171C54.4116 40.556 55.0459 39.895 55.3735 39.0742C55.7011 38.2534 55.6963 37.3373 55.36 36.5201V36.5201Z" stroke="#C3E1FA" stroke-width="2" stroke-miterlimit="10"/>
<path d="M50.152 50.1801L53.322 48.7941C54.0506 48.4659 54.623 47.8673 54.9183 47.1248C55.2135 46.3822 55.2084 45.5539 54.904 44.8151C54.6885 44.2645 54.311 43.7922 53.8214 43.4606C53.3319 43.1291 52.7532 42.9538 52.162 42.9581C51.781 42.9555 51.4036 43.0311 51.053 43.1801L47.884 44.5631C47.1551 44.892 46.5826 45.4914 46.2874 46.2346C45.9922 46.9778 45.9974 47.8067 46.302 48.5461C46.5181 49.0967 46.8962 49.5688 47.3863 49.9C47.8764 50.2312 48.4555 50.406 49.047 50.4011C49.4265 50.4033 49.8025 50.3281 50.152 50.1801Z" stroke="#C3E1FA" stroke-width="2" stroke-miterlimit="10"/>
<path d="M45.859 32.191C46.0989 32.7998 46.5174 33.3218 47.0594 33.6884C47.6014 34.055 48.2417 34.249 48.896 34.245C49.3165 34.2469 49.7329 34.1632 50.12 33.999L52.496 32.9151C53.3018 32.5522 53.935 31.8904 54.2619 31.0694C54.5888 30.2484 54.5838 29.3325 54.248 28.515C54.0084 27.9059 53.5901 27.3835 53.0481 27.0165C52.506 26.6495 51.8656 26.4552 51.211 26.459C50.7898 26.4563 50.3726 26.5401 49.985 26.705L47.61 27.792C46.8036 28.1539 46.1698 28.8155 45.843 29.6367C45.5161 30.4579 45.5219 31.374 45.859 32.191V32.191Z" stroke="#C3E1FA" stroke-width="2" stroke-miterlimit="10"/>
<path d="M30.5129 49.568H37.6709" stroke="#C3E1FA" stroke-width="2" stroke-miterlimit="10" stroke-linecap="round"/>
<path d="M32.854 6.88403H35.328" stroke="#C3E1FA" stroke-width="2" stroke-miterlimit="10" stroke-linecap="round"/>
<path d="M19.127 45.265H46.895" stroke="#C3E1FA" stroke-width="2" stroke-miterlimit="10"/>
<path d="M19.127 10.651H49.057" stroke="#C3E1FA" stroke-width="2" stroke-miterlimit="10"/>
<path d="M49.057 23.373L55.457 20.635C56.3681 20.2242 57.0837 19.4753 57.4528 18.5466C57.8219 17.6179 57.8155 16.5821 57.435 15.658C57.2967 15.231 57.0724 14.8369 56.7759 14.5C56.4794 14.1631 56.117 13.8905 55.7111 13.6991C55.3052 13.5077 54.8643 13.4014 54.4158 13.387C53.9672 13.3725 53.5204 13.4501 53.103 13.615C52.526 13.781 49.818 14.737 49.058 15.057" stroke="#C3E1FA" stroke-width="2" stroke-miterlimit="10"/>
</g>
<defs>
<clipPath id="clip0_3_716">
<rect width="64" height="64" fill="white"/>
</clipPath>
</defs>
</svg>
