<svg width="64" height="64" viewBox="0 0 64 64" fill="none" xmlns="http://www.w3.org/2000/svg">
<g clip-path="url(#clip0_53_667)">
<mask id="mask0_53_667" style="mask-type:luminance" maskUnits="userSpaceOnUse" x="0" y="0" width="64" height="64">
<path d="M64 0H0V64H64V0Z" fill="white"/>
</mask>
<g mask="url(#mask0_53_667)">
<path d="M35.4461 31.147L58.729 44.776L28.55 62.349L5.26807 49.117L17.5491 41.797" stroke="white" stroke-width="2" stroke-linejoin="round"/>
<path d="M43.7182 9.62598C41.1622 8.16098 39.8832 7.43198 37.3282 5.96598C37.0614 5.77537 36.7344 5.68849 36.4082 5.72163C36.082 5.75476 35.7792 5.90562 35.5562 6.14597C31.1789 13.2208 27.2405 20.558 23.7632 28.116C19.7222 36.939 20.9162 39.087 20.9162 39.087C20.6282 39.905 20.1672 41.576 21.0012 42.054C21.8352 42.532 23.0242 41.312 23.5842 40.645C23.5842 40.645 26.0742 40.536 31.7392 32.414C36.4381 25.6431 40.6872 18.5708 44.4592 11.243C44.5521 10.9294 44.5283 10.5928 44.392 10.2955C44.2558 9.99814 44.0164 9.7603 43.7182 9.62598Z" stroke="white" stroke-width="2" stroke-linejoin="round"/>
<path d="M31.7802 5.43494C28.9278 9.56197 26.4309 13.9236 24.3162 18.4729" stroke="white" stroke-width="2" stroke-linecap="round" stroke-linejoin="round"/>
<path d="M23.762 28.1169L31.738 32.4139" stroke="white" stroke-width="2"/>
<path d="M43.263 9.36798L45 6.32999C45.21 5.96799 44.952 5.42999 44.426 5.12999L40.858 3.08899C40.332 2.78899 39.738 2.83699 39.531 3.19899L37.792 6.23698" stroke="white" stroke-width="2"/>
<path d="M32 36.551C33.5476 37.1745 35.0607 37.8802 36.533 38.665C37.627 39.254 38.656 39.557 38.07 40.778C38.799 41.052 39.165 40.584 39.879 40.612C40.742 40.649 40.679 41.237 40.309 41.885C40.733 41.828 41.227 41.5161 41.344 41.9471C41.444 42.3011 41.056 42.67 40.876 42.924C41.626 42.512 42.676 41.19 43.705 42.392C44.258 43.037 43.6 43.692 43.14 44.385C43.986 43.558 46.179 41.6501 45.92 44.0291C45.7554 44.8337 45.4089 45.59 44.907 46.2401C44.1374 47.3341 43.2045 48.3037 42.141 49.1151C42.141 49.1151 48.082 45.563 50.118 45.592" stroke="white" stroke-width="2" stroke-linecap="round" stroke-linejoin="round"/>
</g>
</g>
<defs>
<clipPath id="clip0_53_667">
<rect width="64" height="64" fill="white"/>
</clipPath>
</defs>
</svg>
