<svg width="64" height="64" viewBox="0 0 64 64" fill="none" xmlns="http://www.w3.org/2000/svg">
<g clip-path="url(#clip0_3_718)">
<path d="M14.849 41.988C16.164 44.713 18.268 49.063 19.505 51.582C19.8358 52.4205 20.4087 53.1416 21.1508 53.6532C21.893 54.1649 22.7706 54.444 23.672 54.455H36.372C38.833 54.455 40.272 53.255 40.272 51.029C40.3442 50.3121 40.1607 49.5928 39.7539 48.9981C39.3471 48.4034 38.7433 47.9716 38.049 47.779L26.973 46.621L22.515 36.134C20.688 31.634 17.479 29.692 13.992 29.692C9.20697 29.692 5.59198 32.492 4.58298 38.878L2.56897 53.256H17.142" stroke="#C3E1FA" stroke-width="2" stroke-linecap="round" stroke-linejoin="round"/>
<path d="M9.65894 18.196C9.65894 19.9071 10.1663 21.5796 11.1169 23.0023C12.0675 24.4249 13.4186 25.5337 14.9993 26.1885C16.5801 26.8433 18.3195 27.0146 19.9977 26.6808C21.6758 26.347 23.2173 25.5231 24.4271 24.3132C25.637 23.1033 26.4609 21.5619 26.7947 19.8838C27.1285 18.2056 26.9572 16.4662 26.3024 14.8854C25.6477 13.3047 24.5388 11.9536 23.1162 11.003C21.6935 10.0524 20.0209 9.54504 18.3099 9.54504C17.1739 9.54504 16.0489 9.7688 14.9993 10.2036C13.9497 10.6383 12.9961 11.2755 12.1927 12.0789C11.3894 12.8822 10.7522 13.8358 10.3174 14.8854C9.88269 15.935 9.65894 17.06 9.65894 18.196V18.196Z" stroke="#C3E1FA" stroke-width="2" stroke-linejoin="round"/>
<path d="M61.433 44.359L34.318 38.0121V15.6021L61.432 21.071L61.433 44.359Z" stroke="#C3E1FA" stroke-width="2" stroke-linejoin="round"/>
<path d="M31.6501 47.0851L29.05 46.4581L37.099 42.7521L58.242 47.8361L50.1931 51.5421L39.777 49.0421" stroke="#C3E1FA" stroke-width="2" stroke-linejoin="round"/>
<path d="M43.7649 40.2151V44.3601" stroke="#C3E1FA" stroke-width="2" stroke-linejoin="round"/>
<path d="M48.9719 41.473V45.618" stroke="#C3E1FA" stroke-width="2" stroke-linejoin="round"/>
<path d="M37.054 19.1591L37.327 19.2151" stroke="#C3E1FA" stroke-width="2" stroke-linecap="round" stroke-linejoin="round"/>
</g>
<defs>
<clipPath id="clip0_3_718">
<rect width="64" height="64" fill="white"/>
</clipPath>
</defs>
</svg>
