<svg width="64" height="64" viewBox="0 0 64 64" fill="none" xmlns="http://www.w3.org/2000/svg">
<g clip-path="url(#clip0_53_690)">
<mask id="mask0_53_690" style="mask-type:luminance" maskUnits="userSpaceOnUse" x="0" y="0" width="64" height="64">
<path d="M64 0H0V64H64V0Z" fill="white"/>
</mask>
<g mask="url(#mask0_53_690)">
<path d="M19.1269 14.546C17.8269 10.646 12.9219 9.78708 11.5269 10.616C9.93285 11.565 13.4659 17.616 9.66984 28.833C8.09884 33.457 6.64085 37.972 6.34585 41.807C5.20785 56.607 19.4169 64.097 28.8159 60.114L42.6369 54.164" stroke="white" stroke-width="2" stroke-miterlimit="10"/>
<path d="M49.0567 27.127V7.37302C49.0724 6.43099 48.7501 5.51452 48.1482 4.7897C47.5463 4.06488 46.7046 3.57967 45.7757 3.42202C41.5607 3.02202 37.8377 2.82202 34.1007 2.82202C30.3637 2.82202 26.6267 3.02202 22.3697 3.42702C21.4481 3.59068 20.6152 4.07781 20.0207 4.8008C19.4262 5.52378 19.1092 6.43517 19.1267 7.37102V49.813C19.1102 50.7551 19.4323 51.6719 20.0344 52.3967C20.6364 53.1216 21.4786 53.6064 22.4077 53.763C26.6247 54.163 30.6477 54.363 34.7157 54.363C38.2704 54.3899 41.8239 54.2193 45.3597 53.852C47.2597 53.563 49.3277 52.266 49.3277 50.394" stroke="white" stroke-width="2" stroke-miterlimit="10"/>
<path d="M55.36 36.5201C55.1213 35.9105 54.7031 35.3877 54.1608 35.0209C53.6185 34.6542 52.9777 34.4607 52.323 34.4661C51.9029 34.464 51.4869 34.5474 51.1 34.7111L47.595 36.2431C46.7896 36.6063 46.1568 37.2682 45.8301 38.0891C45.5034 38.91 45.5084 39.8257 45.844 40.6431C46.0834 41.2519 46.5017 41.7739 47.0436 42.1404C47.5856 42.5069 48.2258 42.7006 48.88 42.6961C49.3009 42.6977 49.7177 42.6137 50.105 42.449L53.605 40.9171C54.4116 40.556 55.0459 39.895 55.3735 39.0742C55.7011 38.2534 55.6963 37.3373 55.36 36.5201Z" stroke="white" stroke-width="2" stroke-miterlimit="10"/>
<path d="M50.1519 50.1801L53.3219 48.7941C54.0505 48.4659 54.6229 47.8673 54.9182 47.1248C55.2134 46.3822 55.2083 45.5539 54.9039 44.8151C54.6884 44.2645 54.3109 43.7922 53.8213 43.4606C53.3318 43.1291 52.7531 42.9538 52.1619 42.9581C51.7809 42.9555 51.4035 43.0311 51.0529 43.1801L47.8839 44.5631C47.155 44.892 46.5825 45.4914 46.2873 46.2346C45.9921 46.9778 45.9973 47.8067 46.3019 48.5461C46.518 49.0967 46.8961 49.5688 47.3862 49.9C47.8763 50.2312 48.4554 50.406 49.0469 50.4011C49.4264 50.4033 49.8024 50.3281 50.1519 50.1801Z" stroke="white" stroke-width="2" stroke-miterlimit="10"/>
<path d="M45.8589 32.191C46.0988 32.7998 46.5173 33.3218 47.0593 33.6884C47.6013 34.055 48.2416 34.249 48.8959 34.245C49.3164 34.2469 49.7328 34.1632 50.1199 33.999L52.4959 32.9151C53.3017 32.5522 53.9349 31.8904 54.2618 31.0694C54.5887 30.2484 54.5837 29.3325 54.2479 28.515C54.0083 27.9059 53.59 27.3835 53.048 27.0165C52.5059 26.6495 51.8655 26.4552 51.2109 26.459C50.7897 26.4563 50.3725 26.5401 49.9849 26.705L47.6099 27.792C46.8035 28.1539 46.1697 28.8155 45.8429 29.6367C45.516 30.4579 45.5218 31.374 45.8589 32.191Z" stroke="white" stroke-width="2" stroke-miterlimit="10"/>
<path d="M30.5127 49.568H37.6707" stroke="white" stroke-width="2" stroke-miterlimit="10" stroke-linecap="round"/>
<path d="M32.8538 6.88403H35.3278" stroke="white" stroke-width="2" stroke-miterlimit="10" stroke-linecap="round"/>
<path d="M19.127 45.265H46.895" stroke="white" stroke-width="2" stroke-miterlimit="10"/>
<path d="M19.127 10.651H49.057" stroke="white" stroke-width="2" stroke-miterlimit="10"/>
<path d="M49.0569 23.373L55.4569 20.635C56.368 20.2242 57.0836 19.4753 57.4527 18.5466C57.8218 17.6179 57.8154 16.5821 57.4349 15.658C57.2966 15.231 57.0723 14.8369 56.7758 14.5C56.4793 14.1631 56.1169 13.8905 55.711 13.6991C55.3051 13.5077 54.8642 13.4014 54.4157 13.387C53.9671 13.3725 53.5203 13.4501 53.1029 13.615C52.5259 13.781 49.8179 14.737 49.0579 15.057" stroke="white" stroke-width="2" stroke-miterlimit="10"/>
</g>
</g>
<defs>
<clipPath id="clip0_53_690">
<rect width="64" height="64" fill="white"/>
</clipPath>
</defs>
</svg>
