<svg width="64" height="64" viewBox="0 0 64 64" fill="none" xmlns="http://www.w3.org/2000/svg">
<g clip-path="url(#clip0_3_714)">
<path d="M31.9992 2.18201C29.729 2.1824 27.5098 2.85597 25.6224 4.11754C23.7349 5.37911 22.2639 7.17203 21.3954 9.26958C20.5269 11.3671 20.2999 13.6751 20.743 15.9017C21.1862 18.1282 22.2796 20.1734 23.8851 21.7786C25.4905 23.3838 27.5359 24.4768 29.7625 24.9196C31.9892 25.3623 34.2971 25.1349 36.3945 24.266C38.4919 23.3971 40.2846 21.9258 41.5458 20.0382C42.807 18.1505 43.4802 15.9313 43.4802 13.661C43.4804 12.1534 43.1835 10.6604 42.6065 9.26756C42.0296 7.87468 41.1838 6.6091 40.1177 5.54312C39.0515 4.47715 37.7858 3.63166 36.3928 3.05495C34.9998 2.47824 33.5069 2.18161 31.9992 2.18201Z" stroke="#C3E1FA" stroke-width="2" stroke-linejoin="round"/>
<path d="M47.4312 50.59H56.6952" stroke="#C3E1FA" stroke-width="2" stroke-miterlimit="10"/>
<path d="M47.4342 55.22H51.1342C51.2626 55.2061 51.3922 55.2291 51.508 55.2864C51.6237 55.3436 51.7207 55.4328 51.7875 55.5433C51.8543 55.6538 51.8882 55.7811 51.8851 55.9102C51.882 56.0393 51.8422 56.1648 51.7702 56.272L47.8632 61.36C47.4222 61.941 47.0092 61.802 46.4922 61.802H17.5042C16.9902 61.802 16.7252 61.902 16.4372 61.41L12.2272 56.272C12.1552 56.1648 12.1153 56.0393 12.1123 55.9102C12.1092 55.7811 12.143 55.6538 12.2099 55.5433C12.2767 55.4328 12.3736 55.3436 12.4894 55.2864C12.6051 55.2291 12.7348 55.2061 12.8632 55.22H16.5712" stroke="#C3E1FA" stroke-width="2" stroke-miterlimit="10"/>
<path d="M52.1801 50.59V43.426C52.1801 36.066 43.8801 28.873 32.0001 28.873C20.1201 28.873 11.8191 34.691 11.8191 43.426V50.59" stroke="#C3E1FA" stroke-width="2" stroke-linejoin="round"/>
<path d="M16.571 61.593V41.0031C16.5708 40.7552 16.6689 40.5173 16.8438 40.3416C17.0187 40.1659 17.2561 40.0668 17.504 40.066H46.493C46.7416 40.0663 46.9798 40.1651 47.1557 40.3407C47.3315 40.5164 47.4305 40.7545 47.431 41.0031V61.7291" stroke="#C3E1FA" stroke-width="2" stroke-miterlimit="10"/>
<path d="M31.8892 50.938H32.1122" stroke="#C3E1FA" stroke-width="2" stroke-miterlimit="10" stroke-linecap="round"/>
<path d="M7.30713 50.59H16.5711" stroke="#C3E1FA" stroke-width="2" stroke-miterlimit="10"/>
</g>
<defs>
<clipPath id="clip0_3_714">
<rect width="64" height="64" fill="white"/>
</clipPath>
</defs>
</svg>
