<svg width="150" height="30" viewBox="0 0 150 30" fill="none" xmlns="http://www.w3.org/2000/svg">
<g clip-path="url(#clip0_3_900)">
<path d="M51.2544 0H66.5222L69.0414 4.25967H58.6899L69.059 21.7913L74.2519 13.0132L76.6794 17.1172L69.0586 30L51.2544 0Z" fill="#F00A28"/>
<path d="M62.0789 6.24717H66.9331L69.0433 9.81546L74.8487 0H79.7026L69.0433 18.0227L62.0789 6.24717Z" fill="#F00A28"/>
<path d="M84.8706 9.15259H88.5054L91.1814 16.6075L93.8737 9.15259H97.441L92.6617 21.0162H89.6327L84.8706 9.15259Z" fill="black"/>
<path d="M102.827 16.5231L98.334 9.1526H102.053L104.476 13.4441L106.916 9.1526H110.568L106.091 16.473V20.9322H102.826V16.5231H102.827ZM105.015 5.61902L108.06 6.54462L105.57 8.34503H103.197L105.015 5.61902Z" fill="black"/>
<path d="M111.894 9.15259H115.159V13.9319L119.231 9.15259H123.085L118.625 14.2008L123.236 20.9322H119.332L116.353 16.5567L115.159 17.8692V20.9322H111.894V9.15259Z" fill="black"/>
<mask id="mask0_3_900" style="mask-type:luminance" maskUnits="userSpaceOnUse" x="-80" y="-94" width="309" height="218">
<path d="M228.248 -93.7627H-79.3931V123.763H228.248V-93.7627Z" fill="white"/>
</mask>
<g mask="url(#mask0_3_900)">
<path d="M123.375 15.076V15.042C123.375 11.6601 126.101 8.91724 129.736 8.91724C133.371 8.91724 136.063 11.6264 136.063 15.0084V15.042C136.063 18.4247 133.337 21.1675 129.702 21.1675C126.068 21.1675 123.375 18.4583 123.375 15.076ZM132.715 15.076V15.042C132.715 13.326 131.504 11.8621 129.703 11.8621C127.902 11.8621 126.708 13.3092 126.708 15.0084V15.042C126.708 16.7419 127.935 18.2229 129.737 18.2229C131.52 18.2229 132.715 16.7755 132.715 15.076Z" fill="black"/>
</g>
<mask id="mask1_3_900" style="mask-type:luminance" maskUnits="userSpaceOnUse" x="-80" y="-94" width="309" height="218">
<path d="M228.248 -93.7627H-79.3931V123.763H228.248V-93.7627Z" fill="white"/>
</mask>
<g mask="url(#mask1_3_900)">
<path d="M138.063 9.15259H141.109L145.955 15.3786V9.15259H149.186V20.9322H146.342L141.294 14.4701V20.9322H138.063V9.15259Z" fill="black"/>
</g>
<mask id="mask2_3_900" style="mask-type:luminance" maskUnits="userSpaceOnUse" x="-80" y="-94" width="309" height="218">
<path d="M228.248 -93.7627H-79.3931V123.763H228.248V-93.7627Z" fill="white"/>
</mask>
<g mask="url(#mask2_3_900)">
<path d="M0 15.076V15.042C0 11.6096 2.62516 8.91724 6.19272 8.91724C8.59899 8.91724 10.1473 9.92688 11.1905 11.3571L8.73346 13.2588C8.06073 12.434 7.28641 11.8786 6.1591 11.8786C4.50998 11.8786 3.34868 13.2924 3.34868 15.0084V15.042C3.34868 16.8091 4.50998 18.1893 6.1591 18.1893C7.38727 18.1893 8.11116 17.6171 8.81788 16.7584L11.2746 18.5087C10.1641 20.0402 8.66623 21.1675 6.07506 21.1675C2.7092 21.1675 0 18.5927 0 15.076Z" fill="black"/>
</g>
<mask id="mask3_3_900" style="mask-type:luminance" maskUnits="userSpaceOnUse" x="-80" y="-94" width="309" height="218">
<path d="M228.248 -93.7627H-79.3931V123.763H228.248V-93.7627Z" fill="white"/>
</mask>
<g mask="url(#mask3_3_900)">
<path d="M12.9395 9.15259H22.4136V11.9122H16.1705V13.713H21.8246V16.2877H16.1705V18.1554H22.4977V20.9322H12.9395V9.15259Z" fill="black"/>
</g>
<mask id="mask4_3_900" style="mask-type:luminance" maskUnits="userSpaceOnUse" x="-80" y="-94" width="309" height="218">
<path d="M228.248 -93.7627H-79.3931V123.763H228.248V-93.7627Z" fill="white"/>
</mask>
<g mask="url(#mask4_3_900)">
<path d="M24.7534 9.15259H27.7992L32.6457 15.3786V9.15259H35.8767V20.9322H33.0327L27.9844 14.4701V20.9322H24.7534V9.15259Z" fill="black"/>
</g>
<mask id="mask5_3_900" style="mask-type:luminance" maskUnits="userSpaceOnUse" x="-80" y="-94" width="309" height="218">
<path d="M228.248 -93.7627H-79.3931V123.763H228.248V-93.7627Z" fill="white"/>
</mask>
<g mask="url(#mask5_3_900)">
<path d="M42.2737 9.06897H45.4207L50.4353 20.9322H46.9353L46.0938 18.8117H41.5334L40.6922 20.9322H37.2759L42.2737 9.06897ZM45.1345 16.271L43.822 12.9391L42.4926 16.271H45.1345Z" fill="black"/>
</g>
<mask id="mask6_3_900" style="mask-type:luminance" maskUnits="userSpaceOnUse" x="-80" y="-94" width="309" height="218">
<path d="M228.248 -93.7627H-79.3931V123.763H228.248V-93.7627Z" fill="white"/>
</mask>
<g mask="url(#mask6_3_900)">
<path d="M14.8183 5.86784L13.167 3.61541V5.86784H12.9434V3.24524H13.171L14.8147 5.46624V3.24524H15.0383V5.86784H14.8183Z" fill="#B1B3B4"/>
</g>
<mask id="mask7_3_900" style="mask-type:luminance" maskUnits="userSpaceOnUse" x="-80" y="-94" width="309" height="218">
<path d="M228.248 -93.7627H-79.3931V123.763H228.248V-93.7627Z" fill="white"/>
</mask>
<g mask="url(#mask7_3_900)">
<path d="M15.8542 5.86784V3.24524H17.5169V3.44987H16.0782V4.42115H17.4895V4.62578H16.0782V5.6632H17.5169V5.86784H15.8542Z" fill="#B1B3B4"/>
</g>
<mask id="mask8_3_900" style="mask-type:luminance" maskUnits="userSpaceOnUse" x="-80" y="-94" width="309" height="218">
<path d="M228.248 -93.7627H-79.3931V123.763H228.248V-93.7627Z" fill="white"/>
</mask>
<g mask="url(#mask8_3_900)">
<path d="M18.002 5.59268L18.1397 5.41947C18.2574 5.57697 18.4189 5.71034 18.6626 5.71034C19.0204 5.71034 19.244 5.46296 19.244 5.10923V3.24561H19.4684V5.10923C19.4684 5.65553 19.1106 5.91498 18.6743 5.91498C18.3911 5.91498 18.1752 5.81631 18.002 5.59268Z" fill="#B1B3B4"/>
</g>
<mask id="mask9_3_900" style="mask-type:luminance" maskUnits="userSpaceOnUse" x="-80" y="-94" width="309" height="218">
<path d="M228.248 -93.7627H-79.3931V123.763H228.248V-93.7627Z" fill="white"/>
</mask>
<g mask="url(#mask9_3_900)">
<path d="M20.2493 5.86784V3.24524H20.4773V5.6632H21.7471V5.86784H20.2493Z" fill="#B1B3B4"/>
</g>
<mask id="mask10_3_900" style="mask-type:luminance" maskUnits="userSpaceOnUse" x="-80" y="-94" width="309" height="218">
<path d="M228.248 -93.7627H-79.3931V123.763H228.248V-93.7627Z" fill="white"/>
</mask>
<g mask="url(#mask10_3_900)">
<path d="M22.3225 5.86784V3.24524H23.9852V3.44987H22.5465V4.42115H23.9578V4.62578H22.5465V5.6632H23.9852V5.86784H22.3225Z" fill="#B1B3B4"/>
</g>
<mask id="mask11_3_900" style="mask-type:luminance" maskUnits="userSpaceOnUse" x="-80" y="-94" width="309" height="218">
<path d="M228.248 -93.7627H-79.3931V123.763H228.248V-93.7627Z" fill="white"/>
</mask>
<g mask="url(#mask11_3_900)">
<path d="M24.6553 5.86784V3.24524H25.6379C26.1411 3.24524 26.4283 3.59933 26.4283 4.01188C26.4283 4.42481 26.137 4.77853 25.6379 4.77853H24.8793V5.86747H24.6553V5.86784ZM26.1922 4.01188C26.1922 3.68191 25.9642 3.44987 25.6141 3.44987H24.8793V4.57426H25.6141C25.9642 4.57463 26.1922 4.33893 26.1922 4.01188Z" fill="#B1B3B4"/>
</g>
<mask id="mask12_3_900" style="mask-type:luminance" maskUnits="userSpaceOnUse" x="-80" y="-94" width="309" height="218">
<path d="M228.248 -93.7627H-79.3931V123.763H228.248V-93.7627Z" fill="white"/>
</mask>
<g mask="url(#mask12_3_900)">
<path d="M26.895 5.49775L27.0408 5.32893C27.2096 5.5215 27.4848 5.71006 27.8623 5.71006C28.3969 5.71006 28.5504 5.41151 28.5504 5.18751C28.5504 4.41685 26.9776 4.81808 26.9776 3.90197C26.9776 3.47334 27.3631 3.2022 27.8385 3.2022C28.2277 3.2022 28.5266 3.33996 28.7269 3.572L28.5778 3.73681C28.3888 3.50879 28.1217 3.40683 27.8268 3.40683C27.4771 3.40683 27.2137 3.60708 27.2137 3.89028C27.2137 4.56265 28.7861 4.19285 28.7861 5.1718C28.7861 5.50981 28.5621 5.91469 27.8542 5.91469C27.4216 5.91506 27.0953 5.73819 26.895 5.49775ZM27.7282 3.00597L27.335 2.43994H27.4921L27.8305 2.88429L28.1608 2.43994H28.318L27.9405 3.00597H27.7282Z" fill="#B1B3B4"/>
</g>
<mask id="mask13_3_900" style="mask-type:luminance" maskUnits="userSpaceOnUse" x="-80" y="-94" width="309" height="218">
<path d="M228.248 -93.7627H-79.3931V123.763H228.248V-93.7627Z" fill="white"/>
</mask>
<g mask="url(#mask13_3_900)">
<path d="M29.5029 3.00597H29.3301L29.9356 2.43994H30.1789L29.5029 3.00597ZM29.4481 3.24569H29.6721V5.86792H29.4481V3.24569Z" fill="#B1B3B4"/>
</g>
<mask id="mask14_3_900" style="mask-type:luminance" maskUnits="userSpaceOnUse" x="-80" y="-94" width="309" height="218">
<path d="M228.248 -93.7627H-79.3931V123.763H228.248V-93.7627Z" fill="white"/>
</mask>
<g mask="url(#mask14_3_900)">
<path d="M31.5381 5.86784V3.24524H32.5207C33.0239 3.24524 33.3111 3.59933 33.3111 4.01188C33.3111 4.42481 33.0202 4.77853 32.5207 4.77853H31.7621V5.86747H31.5381V5.86784ZM33.075 4.01188C33.075 3.68191 32.847 3.44987 32.4973 3.44987H31.7621V4.57426H32.4973C32.847 4.57463 33.075 4.33893 33.075 4.01188Z" fill="#B1B3B4"/>
</g>
<mask id="mask15_3_900" style="mask-type:luminance" maskUnits="userSpaceOnUse" x="-80" y="-94" width="309" height="218">
<path d="M228.248 -93.7627H-79.3931V123.763H228.248V-93.7627Z" fill="white"/>
</mask>
<g mask="url(#mask15_3_900)">
<path d="M33.823 4.55894C33.823 3.7923 34.3262 3.20251 35.0965 3.20251C35.8631 3.20251 36.3703 3.7923 36.3703 4.55894C36.3703 5.32559 35.8631 5.915 35.0965 5.915C34.3265 5.915 33.823 5.32559 33.823 4.55894ZM36.1343 4.55894C36.1343 3.89461 35.7257 3.40715 35.0965 3.40715C34.4639 3.40715 34.0587 3.89461 34.0587 4.55894C34.0587 5.21925 34.4639 5.71037 35.0965 5.71037C35.7257 5.71001 36.1343 5.21925 36.1343 4.55894Z" fill="#B1B3B4"/>
</g>
<mask id="mask16_3_900" style="mask-type:luminance" maskUnits="userSpaceOnUse" x="-80" y="-94" width="309" height="218">
<path d="M228.248 -93.7627H-79.3931V123.763H228.248V-93.7627Z" fill="white"/>
</mask>
<g mask="url(#mask16_3_900)">
<path d="M39.2912 5.86784V3.5288L38.336 5.86784H38.2494L37.2902 3.5288V5.86784H37.0662V3.24524H37.4002L38.2929 5.42751L39.1808 3.24524H39.5192V5.86784H39.2912Z" fill="#B1B3B4"/>
</g>
<mask id="mask17_3_900" style="mask-type:luminance" maskUnits="userSpaceOnUse" x="-80" y="-94" width="309" height="218">
<path d="M228.248 -93.7627H-79.3931V123.763H228.248V-93.7627Z" fill="white"/>
</mask>
<g mask="url(#mask17_3_900)">
<path d="M40.3369 5.86792V3.24532H41.9992V3.44995H40.5605V4.42087H41.9718V4.6255H40.5605V5.66292H41.9992V5.86755H40.3369V5.86792ZM41.0754 3.00597L40.6826 2.43994H40.8397L41.1777 2.88429L41.5081 2.43994H41.6652L41.2877 3.00597H41.0754Z" fill="#B1B3B4"/>
</g>
<mask id="mask18_3_900" style="mask-type:luminance" maskUnits="userSpaceOnUse" x="-80" y="-94" width="309" height="218">
<path d="M228.248 -93.7627H-79.3931V123.763H228.248V-93.7627Z" fill="white"/>
</mask>
<g mask="url(#mask18_3_900)">
<path d="M44.223 5.86784L43.4881 4.78255H42.91V5.86784H42.686V3.24524H43.665C44.117 3.24524 44.4631 3.53246 44.4631 4.01188C44.4631 4.48766 44.1287 4.75076 43.7355 4.76647L44.4941 5.86747H44.223V5.86784ZM44.227 4.01188C44.227 3.68191 43.995 3.44987 43.6453 3.44987H42.91V4.57828H43.6453C43.995 4.57828 44.227 4.34222 44.227 4.01188Z" fill="#B1B3B4"/>
</g>
</g>
<defs>
<clipPath id="clip0_3_900">
<rect width="149.186" height="30" fill="white"/>
</clipPath>
</defs>
</svg>
