<svg width="64" height="64" viewBox="0 0 64 64" fill="none" xmlns="http://www.w3.org/2000/svg">
<g clip-path="url(#clip0_2_6605)">
<path fill-rule="evenodd" clip-rule="evenodd" d="M32 57.8911L27.4399 60.7999L24 56.6239L18.7615 57.9807L16.7808 52.9471L11.3792 52.6271L11.0592 47.2256L6.02555 45.2447L7.37595 40L3.19995 36.5599L6.10875 32L3.19995 27.4399L7.37595 24L6.01915 18.7615L11.0528 16.7808L11.3728 11.3792L16.7744 11.0592L18.7552 6.02555L24 7.37595L27.4399 3.19995L32 6.10875L36.5599 3.19995L40 7.37595L45.2383 6.01915L47.2191 11.0528L52.6208 11.3728L52.9408 16.7744L57.9743 18.7552L56.6239 24L60.7999 27.4399L57.8911 32L60.7999 36.5599L56.6239 40L57.9807 45.2383L52.9471 47.2191L52.6271 52.6208L47.2256 52.9408L45.2447 57.9743L40 56.6239L36.5599 60.7999L32 57.8911ZM20.1343 23.8272V25.1968C20.1132 25.9004 20.2356 26.6009 20.4942 27.2556C20.7528 27.9103 21.1421 28.5055 21.6383 29.0047C22.2122 29.534 22.8877 29.9411 23.6237 30.2013C24.3597 30.4615 25.141 30.5694 25.92 30.5183C26.6937 30.5682 27.4695 30.4606 28.2004 30.2021C28.9314 29.9436 29.6024 29.5395 30.1727 29.0144C30.6705 28.514 31.0608 27.9174 31.32 27.261C31.5791 26.6045 31.7016 25.9021 31.6799 25.1968V23.8272C31.7028 23.1194 31.5822 22.4143 31.3254 21.7543C31.0686 21.0944 30.6808 20.4933 30.1855 19.9872C29.6117 19.4554 28.9356 19.046 28.1983 18.7842C27.4611 18.5223 26.6783 18.4133 25.8976 18.464C25.1223 18.4144 24.3451 18.524 23.6137 18.7859C22.8823 19.0479 22.2123 19.4567 21.6448 19.9872C21.1466 20.4919 20.7559 21.0925 20.4963 21.7525C20.2367 22.4125 20.1136 23.1182 20.1343 23.8272ZM23.9743 25.1968V23.8272C23.9582 23.2826 24.135 22.75 24.4735 22.3231C24.6437 22.1184 24.8593 21.9562 25.1032 21.8495C25.3471 21.7429 25.6125 21.6947 25.8783 21.7087C26.1472 21.6931 26.4159 21.7405 26.6631 21.8472C26.9104 21.9539 27.1293 22.1169 27.3023 22.3231C27.6409 22.75 27.8177 23.2826 27.8015 23.8272V25.1968C27.8197 25.7341 27.6462 26.2604 27.3119 26.6816C27.1407 26.8821 26.9253 27.0402 26.6827 27.1435C26.4401 27.2468 26.1768 27.2924 25.9135 27.2768C25.644 27.2938 25.3742 27.249 25.1247 27.1458C24.8751 27.0427 24.6524 26.8839 24.4735 26.6816C24.135 26.2624 23.9589 25.7352 23.9776 25.1968H23.9743ZM32.4319 38.3999V39.7696C32.4083 40.4799 32.5314 41.1876 32.7934 41.8483C33.0555 42.509 33.451 43.1085 33.9551 43.6096C34.5333 44.1373 35.2117 44.5432 35.9501 44.8033C36.6884 45.0633 37.4715 45.1721 38.2528 45.1231C39.0251 45.1735 39.7996 45.0662 40.529 44.8076C41.2585 44.549 41.9278 44.1447 42.4959 43.6191C42.9904 43.1129 43.377 42.5115 43.6322 41.8514C43.8874 41.1914 44.006 40.4864 43.9808 39.7791V38.3999C44.0056 37.6928 43.8869 36.9879 43.6317 36.3279C43.3765 35.6679 42.9901 35.0664 42.4959 34.5599C41.9229 34.0294 41.2476 33.6215 40.5114 33.3612C39.7751 33.101 38.9935 32.9938 38.2144 33.0463C37.4363 32.9979 36.6564 33.108 35.9221 33.3698C35.1878 33.6316 34.5143 34.0398 33.9424 34.5696C33.4428 35.0713 33.0511 35.67 32.7913 36.3287C32.5316 36.9874 32.4093 37.6922 32.4319 38.3999ZM36.2943 39.7696V38.3999C36.2803 37.8616 36.4571 37.3357 36.7935 36.9151C36.9758 36.7215 37.1957 36.5672 37.4397 36.4618C37.6838 36.3563 37.9469 36.3019 38.2127 36.3019C38.4786 36.3019 38.7417 36.3563 38.9858 36.4618C39.2298 36.5672 39.4497 36.7215 39.632 36.9151C39.9738 37.3332 40.1543 37.8601 40.1407 38.3999V39.7696C40.1734 40.3137 40.0371 40.8547 39.7503 41.3183C39.5638 41.5234 39.3306 41.6805 39.0705 41.7763C38.8103 41.8722 38.5309 41.9039 38.2559 41.8687C37.993 41.8718 37.7326 41.8175 37.4928 41.7098C37.253 41.602 37.0395 41.4433 36.8671 41.2447C36.4933 40.8465 36.288 40.319 36.2943 39.7727V39.7696ZM26.8608 42.8127L39.5135 22.5599L36.72 21.1551L24.0672 41.4111L26.8608 42.8127Z" fill="#84A4CF"/>
</g>
<defs>
<clipPath id="clip0_2_6605">
<rect width="64" height="64" fill="white"/>
</clipPath>
</defs>
</svg>
