<svg width="24" height="24" viewBox="0 0 24 24" fill="none" xmlns="http://www.w3.org/2000/svg">
<path d="M11.9999 11.8984C10.8401 11.8984 9.84963 11.4878 9.02843 10.6666C8.20723 9.84535 7.79663 8.85486 7.79663 7.69508C7.79663 6.53529 8.20723 5.5458 9.02843 4.7266C9.84963 3.9074 10.8401 3.4978 11.9999 3.4978C13.1597 3.4978 14.1502 3.9074 14.9714 4.7266C15.7926 5.5458 16.2032 6.53529 16.2032 7.69508C16.2032 8.85486 15.7926 9.84535 14.9714 10.6666C14.1502 11.4878 13.1597 11.8984 11.9999 11.8984ZM3.79663 18.0299V17.2897C3.79663 16.6871 3.95243 16.1324 4.26403 15.6255C4.57563 15.1186 4.99103 14.7322 5.51023 14.4663C6.55551 13.9456 7.61946 13.5541 8.70208 13.2918C9.78468 13.0295 10.884 12.8984 11.9999 12.8984C13.1238 12.8984 14.2271 13.0285 15.3097 13.2888C16.3923 13.5492 17.4523 13.9397 18.4896 14.4603C19.0088 14.7263 19.4242 15.1117 19.7358 15.6166C20.0474 16.1215 20.2032 16.6792 20.2032 17.2897V18.0299C20.2032 18.6596 19.9814 19.1962 19.538 19.6397C19.0945 20.0831 18.5579 20.3049 17.9282 20.3049H6.07166C5.44194 20.3049 4.90534 20.0831 4.46186 19.6397C4.01837 19.1962 3.79663 18.6596 3.79663 18.0299Z" fill="white"/>
</svg>
