<svg width="24" height="24" viewBox="0 0 24 24" fill="none" xmlns="http://www.w3.org/2000/svg">
<g clip-path="url(#clip0_2_6415)">
<path fill-rule="evenodd" clip-rule="evenodd" d="M14.472 14.4143C15.8006 14.4313 17.1225 14.6049 18.4104 14.9315C19.8054 15.2394 21.1374 15.7837 22.3488 16.5407C22.8346 16.7946 23.2438 17.1736 23.5341 17.6386C23.8243 18.1036 23.9852 18.6376 24 19.1855V21.5999H4.8V19.1855C4.84926 18.6283 5.0406 18.093 5.35574 17.6308C5.67087 17.1686 6.09927 16.795 6.6 16.5455C7.81136 15.7886 9.14342 15.2447 10.5384 14.9375C11.8262 14.6101 13.1482 14.436 14.4768 14.4191L14.472 14.4143ZM14.472 11.9999C13.6282 12.0054 12.7988 11.7819 12.072 11.3531C11.3493 10.9324 10.7462 10.3338 10.32 9.61434C9.8879 8.89405 9.66246 8.06868 9.6684 7.22874C9.66455 6.37999 9.88965 5.54591 10.32 4.81434C10.7394 4.08208 11.3435 3.47261 12.072 3.04674C12.8022 2.62305 13.6314 2.3999 14.4756 2.3999C15.3198 2.3999 16.149 2.62305 16.8792 3.04674C17.6077 3.47261 18.2118 4.08208 18.6312 4.81434C19.0614 5.54598 19.2865 6.38002 19.2828 7.22874C19.2895 8.06878 19.064 8.89434 18.6312 9.61434C18.2054 10.3344 17.6022 10.9335 16.8792 11.3543C16.1522 11.7823 15.3228 12.0054 14.4792 11.9999H14.472ZM1.2 9.59994C0.88174 9.59994 0.576516 9.72637 0.351472 9.95141C0.126428 10.1765 0 10.4817 0 10.7999C0 11.1182 0.126428 11.4234 0.351472 11.6485C0.576516 11.8735 0.88174 11.9999 1.2 11.9999H2.4V13.1999C2.4 13.5182 2.52643 13.8234 2.75147 14.0485C2.97652 14.2735 3.28174 14.3999 3.6 14.3999C3.91826 14.3999 4.22348 14.2735 4.44853 14.0485C4.67357 13.8234 4.8 13.5182 4.8 13.1999V11.9999H6C6.31826 11.9999 6.62348 11.8735 6.84853 11.6485C7.07357 11.4234 7.2 11.1182 7.2 10.7999C7.2 10.4817 7.07357 10.1765 6.84853 9.95141C6.62348 9.72637 6.31826 9.59994 6 9.59994H4.8V8.39994C4.8 8.08168 4.67357 7.77646 4.44853 7.55141C4.22348 7.32637 3.91826 7.19994 3.6 7.19994C3.28174 7.19994 2.97652 7.32637 2.75147 7.55141C2.52643 7.77646 2.4 8.08168 2.4 8.39994V9.59994H1.2Z" fill="white"/>
</g>
<defs>
<clipPath id="clip0_2_6415">
<rect width="24" height="24" fill="white"/>
</clipPath>
</defs>
</svg>
