<svg width="64" height="64" viewBox="0 0 64 64" fill="none" xmlns="http://www.w3.org/2000/svg">
<g clip-path="url(#clip0_2_6505)">
<path d="M39.391 42.1678C39.391 40.7062 38.9575 39.2774 38.1455 38.0622C37.3335 36.8469 36.1793 35.8997 34.829 35.3404C33.4786 34.781 31.9928 34.6347 30.5592 34.9198C29.1257 35.205 27.8089 35.9088 26.7754 36.9423C25.7419 37.9758 25.0381 39.2926 24.753 40.7261C24.4678 42.1597 24.6142 43.6455 25.1735 44.9959C25.7328 46.3462 26.68 47.5004 27.8953 48.3124C29.1106 49.1244 30.5393 49.5578 32.0009 49.5578C32.9715 49.558 33.9325 49.3669 34.8291 48.9956C35.7258 48.6242 36.5405 48.0799 37.2268 47.3936C37.913 46.7074 38.4574 45.8927 38.8287 44.996C39.2 44.0994 39.3911 43.1384 39.391 42.1678V42.1678Z" stroke="#C3E1FA" stroke-width="2" stroke-linejoin="round"/>
<path d="M43.704 60.8809C43.704 57.5969 41.532 54.3099 36.938 52.9409L32 56.3719L27.066 52.9419C22.476 54.3109 20.298 57.5979 20.298 60.8799" stroke="#C3E1FA" stroke-width="2" stroke-linejoin="round"/>
<path d="M10.44 20.9028C11.4567 20.9027 12.4506 20.601 13.2959 20.036C14.1412 19.4709 14.8 18.6679 15.1889 17.7285C15.5779 16.7891 15.6795 15.7555 15.4811 14.7583C15.2826 13.7611 14.7929 12.8452 14.0739 12.1263C13.3548 11.4074 12.4388 10.9178 11.4416 10.7196C10.4443 10.5213 9.4107 10.6231 8.47136 11.0123C7.53202 11.4014 6.72918 12.0604 6.16432 12.9058C5.59947 13.7512 5.29797 14.7451 5.29797 15.7619C5.29784 16.4371 5.43076 17.1058 5.68913 17.7296C5.94751 18.3535 6.32628 18.9203 6.8038 19.3978C7.28132 19.8752 7.84823 20.2538 8.47214 20.5121C9.09605 20.7703 9.76473 20.9031 10.44 20.9028V20.9028Z" stroke="#C3E1FA" stroke-width="2" stroke-linejoin="round"/>
<path d="M18.778 29.5618C18.778 27.2208 17.2309 24.8788 13.9549 23.9038L10.4369 26.3478L6.91994 23.9048C3.64894 24.8808 2.09595 27.2198 2.09595 29.5618" stroke="#C3E1FA" stroke-width="2" stroke-linejoin="round"/>
<path d="M32.0009 13.4028C33.0177 13.4026 34.0116 13.101 34.8569 12.5359C35.7022 11.9708 36.361 11.1678 36.7499 10.2283C37.1389 9.28884 37.2405 8.25513 37.0419 7.25792C36.8434 6.2607 36.3536 5.34477 35.6344 4.62593C34.9153 3.90709 33.9992 3.41761 33.0019 3.21943C32.0046 3.02126 30.9709 3.12329 30.0316 3.51259C29.0923 3.90188 28.2895 4.56096 27.7248 5.40651C27.16 6.25205 26.8587 7.24607 26.8589 8.26286C26.8589 8.93802 26.9919 9.60655 27.2503 10.2303C27.5088 10.854 27.8876 11.4208 28.3651 11.8981C28.8426 12.3754 29.4095 12.754 30.0333 13.0122C30.6571 13.2703 31.3257 13.4031 32.0009 13.4028Z" stroke="#C3E1FA" stroke-width="2" stroke-linejoin="round"/>
<path d="M40.3399 22.0628C40.3399 19.7218 38.7939 17.3798 35.5179 16.4048L31.9989 18.8488L28.4829 16.4058C25.2109 17.3818 23.6589 19.7218 23.6589 22.0628" stroke="#C3E1FA" stroke-width="2" stroke-linejoin="round"/>
<path d="M53.5619 20.9028C54.5787 20.9028 55.5726 20.6013 56.4181 20.0364C57.2635 19.4715 57.9224 18.6686 58.3116 17.7292C58.7007 16.7898 58.8025 15.7561 58.6041 14.7589C58.4057 13.7616 57.9161 12.8456 57.1971 12.1266C56.4781 11.4076 55.5621 10.918 54.5648 10.7196C53.5676 10.5213 52.5339 10.6231 51.5945 11.0122C50.6551 11.4013 49.8522 12.0602 49.2873 12.9057C48.7224 13.7511 48.4209 14.745 48.4209 15.7618C48.4208 16.437 48.5536 17.1056 48.812 17.7294C49.0703 18.3532 49.4489 18.92 49.9264 19.3974C50.4038 19.8748 50.9706 20.2535 51.5944 20.5118C52.2182 20.7701 52.8867 20.903 53.5619 20.9028V20.9028Z" stroke="#C3E1FA" stroke-width="2" stroke-linejoin="round"/>
<path d="M61.902 29.5618C61.902 27.2208 60.354 24.8788 57.078 23.9038L53.559 26.3478L50.044 23.9048C46.772 24.8808 45.22 27.2198 45.22 29.5618" stroke="#C3E1FA" stroke-width="2" stroke-linejoin="round"/>
<path d="M31.9989 25.5889V30.8639" stroke="#C3E1FA" stroke-width="2" stroke-linejoin="round"/>
<path d="M14.8979 34.9209L18.6739 38.6019" stroke="#C3E1FA" stroke-width="2" stroke-linejoin="round"/>
<path d="M49.1029 34.9209L45.3279 38.6019" stroke="#C3E1FA" stroke-width="2" stroke-linejoin="round"/>
</g>
<defs>
<clipPath id="clip0_2_6505">
<rect width="64" height="64" fill="white"/>
</clipPath>
</defs>
</svg>
