<svg width="64" height="64" viewBox="0 0 64 64" fill="none" xmlns="http://www.w3.org/2000/svg">
<g clip-path="url(#clip0_53_784)">
<mask id="mask0_53_784" style="mask-type:luminance" maskUnits="userSpaceOnUse" x="0" y="0" width="64" height="64">
<path d="M64 0H0V64H64V0Z" fill="white"/>
</mask>
<g mask="url(#mask0_53_784)">
<path d="M39.3911 42.1678C39.3911 40.7062 38.9576 39.2774 38.1456 38.0622C37.3336 36.8469 36.1794 35.8997 34.8291 35.3404C33.4787 34.781 31.9929 34.6347 30.5593 34.9198C29.1258 35.205 27.809 35.9088 26.7755 36.9423C25.742 37.9758 25.0382 39.2926 24.7531 40.7261C24.4679 42.1597 24.6143 43.6455 25.1736 44.9959C25.7329 46.3462 26.6801 47.5004 27.8954 48.3124C29.1107 49.1244 30.5394 49.5578 32.001 49.5578C32.9716 49.558 33.9326 49.3669 34.8292 48.9956C35.7259 48.6242 36.5406 48.0799 37.2269 47.3936C37.9131 46.7074 38.4575 45.8927 38.8288 44.996C39.2001 44.0994 39.3912 43.1384 39.3911 42.1678Z" stroke="white" stroke-width="2" stroke-linejoin="round"/>
<path d="M43.7041 60.8809C43.7041 57.5969 41.5321 54.3099 36.9381 52.9409L32.0001 56.3719L27.0661 52.9419C22.4761 54.3109 20.2981 57.5979 20.2981 60.8799" stroke="white" stroke-width="2" stroke-linejoin="round"/>
<path d="M10.4399 20.9028C11.4566 20.9027 12.4505 20.601 13.2958 20.036C14.1411 19.4709 14.7999 18.6679 15.1888 17.7285C15.5778 16.7891 15.6794 15.7555 15.481 14.7583C15.2825 13.7611 14.7928 12.8452 14.0738 12.1263C13.3547 11.4074 12.4387 10.9178 11.4415 10.7196C10.4442 10.5213 9.41058 10.6231 8.47124 11.0123C7.5319 11.4014 6.72906 12.0604 6.1642 12.9058C5.59935 13.7512 5.29785 14.7451 5.29785 15.7619C5.29772 16.4371 5.43064 17.1058 5.68901 17.7296C5.94739 18.3535 6.32616 18.9203 6.80368 19.3978C7.2812 19.8752 7.84811 20.2538 8.47202 20.5121C9.09593 20.7703 9.76461 20.9031 10.4399 20.9028Z" stroke="white" stroke-width="2" stroke-linejoin="round"/>
<path d="M18.778 29.5618C18.778 27.2208 17.2309 24.8788 13.9549 23.9038L10.4369 26.3478L6.91994 23.9048C3.64894 24.8808 2.09595 27.2198 2.09595 29.5618" stroke="white" stroke-width="2" stroke-linejoin="round"/>
<path d="M32.0009 13.4028C33.0177 13.4026 34.0116 13.101 34.8569 12.5359C35.7022 11.9708 36.361 11.1678 36.7499 10.2283C37.1389 9.28884 37.2405 8.25513 37.0419 7.25792C36.8434 6.2607 36.3536 5.34477 35.6344 4.62593C34.9153 3.90709 33.9992 3.41761 33.0019 3.21943C32.0046 3.02126 30.9709 3.12329 30.0316 3.51259C29.0923 3.90188 28.2895 4.56096 27.7248 5.40651C27.16 6.25205 26.8587 7.24607 26.8589 8.26286C26.8589 8.93802 26.9919 9.60655 27.2503 10.2303C27.5088 10.854 27.8876 11.4208 28.3651 11.8981C28.8426 12.3754 29.4095 12.754 30.0333 13.0122C30.6571 13.2703 31.3257 13.4031 32.0009 13.4028Z" stroke="white" stroke-width="2" stroke-linejoin="round"/>
<path d="M40.3399 22.0628C40.3399 19.7218 38.7939 17.3798 35.5179 16.4048L31.9989 18.8488L28.4829 16.4058C25.2109 17.3818 23.6589 19.7218 23.6589 22.0628" stroke="white" stroke-width="2" stroke-linejoin="round"/>
<path d="M53.5619 20.9028C54.5787 20.9028 55.5726 20.6013 56.4181 20.0364C57.2635 19.4715 57.9224 18.6686 58.3116 17.7292C58.7007 16.7898 58.8025 15.7561 58.6041 14.7589C58.4057 13.7616 57.9161 12.8456 57.1971 12.1266C56.4781 11.4076 55.5621 10.918 54.5648 10.7196C53.5676 10.5213 52.5339 10.6231 51.5945 11.0122C50.6551 11.4013 49.8522 12.0602 49.2873 12.9057C48.7224 13.7511 48.4209 14.745 48.4209 15.7618C48.4208 16.437 48.5536 17.1056 48.812 17.7294C49.0703 18.3532 49.4489 18.92 49.9264 19.3974C50.4038 19.8748 50.9706 20.2535 51.5944 20.5118C52.2182 20.7701 52.8867 20.903 53.5619 20.9028Z" stroke="white" stroke-width="2" stroke-linejoin="round"/>
<path d="M61.902 29.5618C61.902 27.2208 60.354 24.8788 57.078 23.9038L53.559 26.3478L50.044 23.9048C46.772 24.8808 45.22 27.2198 45.22 29.5618" stroke="white" stroke-width="2" stroke-linejoin="round"/>
<path d="M31.9988 25.5889V30.8639" stroke="white" stroke-width="2" stroke-linejoin="round"/>
<path d="M14.8979 34.9209L18.674 38.6019" stroke="white" stroke-width="2" stroke-linejoin="round"/>
<path d="M49.1029 34.9209L45.3279 38.6019" stroke="white" stroke-width="2" stroke-linejoin="round"/>
</g>
</g>
<defs>
<clipPath id="clip0_53_784">
<rect width="64" height="64" fill="white"/>
</clipPath>
</defs>
</svg>
