<svg width="64" height="64" viewBox="0 0 64 64" fill="none" xmlns="http://www.w3.org/2000/svg">
<g clip-path="url(#clip0_2_6496)">
<path d="M41.8168 24.6749L40.0598 30.8489" stroke="#C3E1FA" stroke-width="2" stroke-linejoin="round"/>
<path d="M34.313 44.0789L50.151 48.7409C50.4284 48.8357 50.7227 48.8712 51.0147 48.845C51.3067 48.8189 51.59 48.7316 51.8461 48.589C52.1023 48.4464 52.3256 48.2515 52.5016 48.017C52.6777 47.7825 52.8025 47.5137 52.868 47.2279L62.41 13.6869C62.5659 13.127 62.4946 12.5281 62.2115 12.0205C61.9283 11.5128 61.4563 11.1374 60.8979 10.9759L40.2319 5.10691C39.9547 5.01387 39.6611 4.97977 39.3699 5.00678C39.0788 5.03378 38.7964 5.1213 38.541 5.26374C38.2856 5.40617 38.0628 5.60036 37.8868 5.8339C37.7108 6.06743 37.5855 6.33515 37.519 6.61991L28.9189 37.0969" stroke="#C3E1FA" stroke-width="2" stroke-linejoin="round"/>
<path d="M23.0288 55.2609C23.7908 58.2099 27.5288 58.7799 29.3008 58.0789L30.3848 53.3529C31.6304 53.9591 33.0372 54.1515 34.3998 53.9019L35.3068 44.3719" stroke="#C3E1FA" stroke-width="2" stroke-linejoin="round"/>
<path d="M31.6228 27.5299C30.6768 28.0399 25.3618 30.7999 25.3618 30.7999L25.1508 40.2429L36.2068 31.0279C37.7068 29.8759 39.7478 29.9639 41.6208 32.1279C43.2808 34.0379 43.2208 36.4059 41.6328 37.8509L30.6038 47.2429L22.1558 56.2429C21.3595 57.1269 20.3835 57.8306 19.2932 58.3069C18.2029 58.7832 17.0235 59.0212 15.8338 59.0049H1.50781" stroke="#C3E1FA" stroke-width="2" stroke-linejoin="round"/>
<path d="M34.6299 16.8639L18.1439 24.8369L6.24387 40.8099L1.50586 42.5539" stroke="#C3E1FA" stroke-width="2" stroke-linejoin="round"/>
<path d="M49.2918 26.9119L45.4448 40.4309" stroke="#C3E1FA" stroke-width="2" stroke-linejoin="round"/>
<path d="M43.1783 11.757L40.855 20.1379L49.2359 22.4612L51.5592 14.0803L43.1783 11.757Z" stroke="#C3E1FA" stroke-width="2" stroke-linecap="round" stroke-linejoin="round"/>
<path d="M46.1819 17.2039L46.2319 17.0129" stroke="#C3E1FA" stroke-width="2" stroke-linecap="round" stroke-linejoin="round"/>
</g>
<defs>
<clipPath id="clip0_2_6496">
<rect width="64" height="64" fill="white"/>
</clipPath>
</defs>
</svg>
