<svg width="64" height="64" viewBox="0 0 64 64" fill="none" xmlns="http://www.w3.org/2000/svg">
<g clip-path="url(#clip0_2_6499)">
<path d="M31.3001 46.953L27.9151 48.834C27.701 48.9535 27.4575 49.0099 27.2127 48.9969C26.9679 48.9839 26.7318 48.9019 26.5316 48.7605C26.3313 48.619 26.1752 48.4239 26.0812 48.1975C25.9871 47.9711 25.959 47.7227 26.0001 47.481L26.6811 43.281C26.7172 43.0593 26.7009 42.8321 26.6333 42.6178C26.5657 42.4035 26.4489 42.208 26.2921 42.047L23.3691 39.038C23.2015 38.8658 23.0847 38.6509 23.0313 38.4166C22.9779 38.1824 22.99 37.938 23.0663 37.7102C23.1427 37.4825 23.2803 37.2801 23.464 37.1254C23.6478 36.9706 23.8706 36.8695 24.1081 36.833L28.0181 36.233C28.252 36.1971 28.4735 36.104 28.663 35.962C28.8524 35.82 29.0039 35.6335 29.1041 35.419L30.8191 31.751C30.9242 31.528 31.0905 31.3394 31.2988 31.2073C31.507 31.0752 31.7485 31.0051 31.9951 31.0051C32.2416 31.0051 32.4832 31.0752 32.6914 31.2073C32.8996 31.3394 33.066 31.528 33.1711 31.751L34.8871 35.419C34.9871 35.6336 35.1386 35.8201 35.3281 35.9621C35.5175 36.1041 35.739 36.1972 35.9731 36.233L39.8891 36.833C40.126 36.8694 40.3482 36.9704 40.5316 37.1248C40.7149 37.2792 40.8521 37.4811 40.9283 37.7084C41.0044 37.9356 41.0164 38.1794 40.9631 38.4131C40.9098 38.6468 40.7932 38.8613 40.6261 39.033L37.6981 42.046C37.5413 42.207 37.4244 42.4025 37.3568 42.6168C37.2893 42.8311 37.2729 43.0583 37.3091 43.28L37.9901 47.48C38.0305 47.7212 38.0022 47.9688 37.9083 48.1946C37.8144 48.4203 37.6588 48.615 37.4592 48.7563C37.2596 48.8976 37.0243 48.9797 36.7802 48.9933C36.5361 49.0069 36.2931 48.9513 36.0791 48.833L32.6941 46.952C32.4806 46.8343 32.2407 46.7727 31.9969 46.7729C31.7531 46.7731 31.5134 46.835 31.3001 46.953V46.953Z" stroke="#C3E1FA" stroke-width="2" stroke-linejoin="round"/>
<path d="M32 57C41.3888 57 49 49.3888 49 40C49 30.6112 41.3888 23 32 23C22.6112 23 15 30.6112 15 40C15 49.3888 22.6112 57 32 57Z" stroke="#C3E1FA" stroke-width="2" stroke-linecap="round" stroke-linejoin="round"/>
<path d="M37.455 23.911L29 7H15L24 25" stroke="#C3E1FA" stroke-width="2" stroke-linejoin="round"/>
<path d="M40 25L49 7H35L32 13" stroke="#C3E1FA" stroke-width="2" stroke-linejoin="round"/>
<path d="M11.5451 32.5L8.08105 30.5" stroke="#C3E1FA" stroke-width="2" stroke-linecap="round" stroke-linejoin="round"/>
<path d="M9 40H5" stroke="#C3E1FA" stroke-width="2" stroke-linecap="round" stroke-linejoin="round"/>
<path d="M8.08105 49.5L11.5451 47.5" stroke="#C3E1FA" stroke-width="2" stroke-linecap="round" stroke-linejoin="round"/>
<path d="M52.4541 32.5L55.9181 30.5" stroke="#C3E1FA" stroke-width="2" stroke-linecap="round" stroke-linejoin="round"/>
<path d="M55 40H59" stroke="#C3E1FA" stroke-width="2" stroke-linecap="round" stroke-linejoin="round"/>
<path d="M55.9181 49.5L52.4541 47.5" stroke="#C3E1FA" stroke-width="2" stroke-linecap="round" stroke-linejoin="round"/>
</g>
<defs>
<clipPath id="clip0_2_6499">
<rect width="64" height="64" fill="white"/>
</clipPath>
</defs>
</svg>
